<svg xmlns="http://www.w3.org/2000/svg" xmlns:xlink="http://www.w3.org/1999/xlink" class="httpgd" width="862.00" height="768.00" viewBox="0 0 862.00 768.00">
<defs>
  <style type='text/css'><![CDATA[
    .httpgd line, .httpgd polyline, .httpgd polygon, .httpgd path, .httpgd rect, .httpgd circle {
      fill: none;
      stroke: #000000;
      stroke-linecap: round;
      stroke-linejoin: round;
      stroke-miterlimit: 10.00;
    }
  ]]></style>
<clipPath id="c0"><rect x="0.00" y="0.00" width="862.00" height="768.00"/></clipPath>
<clipPath id="c1"><rect x="0.00" y="0.00" width="431.00" height="384.00"/></clipPath>
<clipPath id="c2"><rect x="491.96" y="60.96" width="332.99" height="250.14"/></clipPath>
<clipPath id="c3"><rect x="0.00" y="0.00" width="862.00" height="768.00"/></clipPath>
<clipPath id="c4"><rect x="431.00" y="0.00" width="431.00" height="384.00"/></clipPath>
<clipPath id="c5"><rect x="0.00" y="0.00" width="862.00" height="768.00"/></clipPath>
<clipPath id="c6"><rect x="431.00" y="0.00" width="431.00" height="384.00"/></clipPath>
<clipPath id="c7"><rect x="491.96" y="60.96" width="332.99" height="250.14"/></clipPath>
<clipPath id="c8"><rect x="60.96" y="444.96" width="763.99" height="250.14"/></clipPath>
<clipPath id="c9"><rect x="0.00" y="0.00" width="862.00" height="768.00"/></clipPath>
<clipPath id="c10"><rect x="0.00" y="384.00" width="862.00" height="384.00"/></clipPath>
<clipPath id="c11"><rect x="0.00" y="0.00" width="862.00" height="768.00"/></clipPath>
<clipPath id="c12"><rect x="60.96" y="444.96" width="763.99" height="250.14"/></clipPath>
</defs>
<rect width="100%" height="100%" style="stroke: none;fill: #FFFFFF;"/>
<g clip-path='url(#c0)'>
</g><g clip-path='url(#c1)'>
<polyline points="227.42,232.59 345.94,179.18" style="stroke-width: 3.64;stroke: #E7A0A0;"/>
<polyline points="64.17,155.39 213.94,159.98" style="stroke-width: 3.66;stroke: #E7A0A0;"/>
<polyline points="62.75,148.67 244.08,61.28" style="stroke-width: 4.00;stroke: #95D595;"/>
<polyline points="214.19,224.08 213.94,159.98" style="stroke-width: 4.34;stroke: #8AD08A;"/>
<polyline points="111.37,56.55 49.73,154.94" style="stroke-width: 4.46;stroke: #86CF86;"/>
<polyline points="216.64,224.28 244.08,61.28" style="stroke-width: 4.66;stroke: #DF8080;"/>
<polyline points="201.36,231.98 49.73,154.94" style="stroke-width: 4.79;stroke: #7CCB7C;"/>
<polyline points="332.06,183.20 78.69,256.58" style="stroke-width: 4.81;stroke: #7BCA7B;"/>
<polyline points="204.93,249.57 128.86,339.69" style="stroke-width: 4.96;stroke: #DD7777;"/>
<polyline points="272.35,306.34 213.94,159.98" style="stroke-width: 5.16;stroke: #70C670;"/>
<polyline points="128.20,55.48 213.94,159.98" style="stroke-width: 5.55;stroke: #D86565;"/>
<polyline points="331.64,177.10 213.94,159.98" style="stroke-width: 5.82;stroke: #5CBE5C;"/>
<polyline points="263.38,321.67 128.86,339.69" style="stroke-width: 5.92;stroke: #59BD59;"/>
<polyline points="223.14,249.91 277.70,319.76" style="stroke-width: 6.04;stroke: #D45555;"/>
<polyline points="53.69,168.84 78.69,256.58" style="stroke-width: 7.03;stroke: #36AF36;"/>
<polyline points="133.36,46.25 244.08,61.28" style="stroke-width: 7.43;stroke: #2AAA2A;"/>
<polyline points="367.10,85.98 244.08,61.28" style="stroke-width: 8.01;stroke: #17A217;"/>
<polyline points="86.16,268.95 128.86,339.69" style="stroke-width: 8.50;stroke: #C10808;"/>
<polyline points="376.01,102.27 345.94,179.18" style="stroke-width: 8.76;stroke: #009900;"/>
<polygon points="278.42,208.49 294.94,208.49 294.94,203.28 278.42,203.28" style="stroke-width: 0.75;stroke: none;fill: #FFFFFF;" />
<polygon points="130.79,160.29 147.32,160.29 147.32,155.08 130.79,155.08" style="stroke-width: 0.75;stroke: none;fill: #FFFFFF;" />
<polygon points="146.36,107.58 160.47,107.58 160.47,102.37 146.36,102.37" style="stroke-width: 0.75;stroke: none;fill: #FFFFFF;" />
<polygon points="207.01,194.63 221.12,194.63 221.12,189.43 207.01,189.43" style="stroke-width: 0.75;stroke: none;fill: #FFFFFF;" />
<polygon points="73.49,108.35 87.61,108.35 87.61,103.14 73.49,103.14" style="stroke-width: 0.75;stroke: none;fill: #FFFFFF;" />
<polygon points="222.10,145.38 238.63,145.38 238.63,140.18 222.10,140.18" style="stroke-width: 0.75;stroke: none;fill: #FFFFFF;" />
<polygon points="118.49,196.07 132.60,196.07 132.60,190.86 118.49,190.86" style="stroke-width: 0.75;stroke: none;fill: #FFFFFF;" />
<polygon points="198.32,222.49 212.43,222.49 212.43,217.29 198.32,217.29" style="stroke-width: 0.75;stroke: none;fill: #FFFFFF;" />
<polygon points="158.63,297.23 175.16,297.23 175.16,292.03 158.63,292.03" style="stroke-width: 0.75;stroke: none;fill: #FFFFFF;" />
<polygon points="236.09,235.76 250.20,235.76 250.20,230.56 236.09,230.56" style="stroke-width: 0.75;stroke: none;fill: #FFFFFF;" />
<polygon points="162.81,110.33 179.33,110.33 179.33,105.13 162.81,105.13" style="stroke-width: 0.75;stroke: none;fill: #FFFFFF;" />
<polygon points="265.74,171.14 279.85,171.14 279.85,165.94 265.74,165.94" style="stroke-width: 0.75;stroke: none;fill: #FFFFFF;" />
<polygon points="189.07,333.29 203.18,333.29 203.18,328.08 189.07,328.08" style="stroke-width: 0.75;stroke: none;fill: #FFFFFF;" />
<polygon points="242.16,287.44 258.68,287.44 258.68,282.23 242.16,282.23" style="stroke-width: 0.75;stroke: none;fill: #FFFFFF;" />
<polygon points="59.13,215.31 73.25,215.31 73.25,210.11 59.13,210.11" style="stroke-width: 0.75;stroke: none;fill: #FFFFFF;" />
<polygon points="181.66,56.37 195.78,56.37 195.78,51.16 181.66,51.16" style="stroke-width: 0.75;stroke: none;fill: #FFFFFF;" />
<polygon points="298.54,76.23 312.65,76.23 312.65,71.02 298.54,71.02" style="stroke-width: 0.75;stroke: none;fill: #FFFFFF;" />
<polygon points="99.25,306.93 115.77,306.93 115.77,301.72 99.25,301.72" style="stroke-width: 0.75;stroke: none;fill: #FFFFFF;" />
<polygon points="353.92,143.33 368.03,143.33 368.03,138.12 353.92,138.12" style="stroke-width: 0.75;stroke: none;fill: #FFFFFF;" />
<g><text x="286.68" y="208.49" text-anchor="middle" style="font-family: Arial;font-size: 7.26px;" textLength="16.52px" lengthAdjust="spacingAndGlyphs">-0.11</text></g>
<g><text x="139.06" y="160.29" text-anchor="middle" style="font-family: Arial;font-size: 7.26px;" textLength="16.52px" lengthAdjust="spacingAndGlyphs">-0.11</text></g>
<g><text x="153.42" y="107.58" text-anchor="middle" style="font-family: Arial;font-size: 7.26px;" textLength="14.11px" lengthAdjust="spacingAndGlyphs">0.12</text></g>
<g><text x="214.07" y="194.63" text-anchor="middle" style="font-family: Arial;font-size: 7.26px;" textLength="14.11px" lengthAdjust="spacingAndGlyphs">0.13</text></g>
<g><text x="80.55" y="108.35" text-anchor="middle" style="font-family: Arial;font-size: 7.26px;" textLength="14.11px" lengthAdjust="spacingAndGlyphs">0.13</text></g>
<g><text x="230.36" y="145.38" text-anchor="middle" style="font-family: Arial;font-size: 7.26px;" textLength="16.52px" lengthAdjust="spacingAndGlyphs">-0.14</text></g>
<g><text x="125.55" y="196.07" text-anchor="middle" style="font-family: Arial;font-size: 7.26px;" textLength="14.11px" lengthAdjust="spacingAndGlyphs">0.15</text></g>
<g><text x="205.38" y="222.49" text-anchor="middle" style="font-family: Arial;font-size: 7.26px;" textLength="14.11px" lengthAdjust="spacingAndGlyphs">0.15</text></g>
<g><text x="166.89" y="297.23" text-anchor="middle" style="font-family: Arial;font-size: 7.26px;" textLength="16.52px" lengthAdjust="spacingAndGlyphs">-0.15</text></g>
<g><text x="243.15" y="235.76" text-anchor="middle" style="font-family: Arial;font-size: 7.26px;" textLength="14.11px" lengthAdjust="spacingAndGlyphs">0.16</text></g>
<g><text x="171.07" y="110.33" text-anchor="middle" style="font-family: Arial;font-size: 7.26px;" textLength="16.52px" lengthAdjust="spacingAndGlyphs">-0.17</text></g>
<g><text x="272.79" y="171.14" text-anchor="middle" style="font-family: Arial;font-size: 7.26px;" textLength="14.11px" lengthAdjust="spacingAndGlyphs">0.18</text></g>
<g><text x="196.12" y="333.29" text-anchor="middle" style="font-family: Arial;font-size: 7.26px;" textLength="14.11px" lengthAdjust="spacingAndGlyphs">0.18</text></g>
<g><text x="250.42" y="287.44" text-anchor="middle" style="font-family: Arial;font-size: 7.26px;" textLength="16.52px" lengthAdjust="spacingAndGlyphs">-0.19</text></g>
<g><text x="66.19" y="215.31" text-anchor="middle" style="font-family: Arial;font-size: 7.26px;" textLength="14.11px" lengthAdjust="spacingAndGlyphs">0.22</text></g>
<g><text x="188.72" y="56.37" text-anchor="middle" style="font-family: Arial;font-size: 7.26px;" textLength="14.11px" lengthAdjust="spacingAndGlyphs">0.24</text></g>
<g><text x="305.59" y="76.23" text-anchor="middle" style="font-family: Arial;font-size: 7.26px;" textLength="14.11px" lengthAdjust="spacingAndGlyphs">0.26</text></g>
<g><text x="107.51" y="306.93" text-anchor="middle" style="font-family: Arial;font-size: 7.26px;" textLength="16.52px" lengthAdjust="spacingAndGlyphs">-0.27</text></g>
<g><text x="360.97" y="143.33" text-anchor="middle" style="font-family: Arial;font-size: 7.26px;" textLength="14.11px" lengthAdjust="spacingAndGlyphs">0.28</text></g>
<polygon points="381.27,74.37 382.19,74.40 383.10,74.49 384.00,74.63 384.90,74.83 385.78,75.09 386.64,75.41 387.48,75.77 388.29,76.19 389.08,76.66 389.84,77.18 390.56,77.75 391.24,78.36 391.88,79.02 392.48,79.71 393.04,80.44 393.55,81.20 394.00,82.00 394.41,82.82 394.77,83.66 395.07,84.53 395.31,85.41 395.50,86.31 395.63,87.22 395.70,88.13 395.72,89.05 395.67,89.96 395.57,90.87 395.41,91.78 395.19,92.67 394.92,93.54 394.60,94.40 394.21,95.23 393.78,96.04 393.30,96.82 392.77,97.57 392.19,98.28 391.57,98.95 390.90,99.59 390.20,100.18 389.46,100.72 388.69,101.21 387.89,101.66 387.06,102.05 386.21,102.40 385.34,102.68 384.45,102.91 383.55,103.09 382.64,103.20 381.73,103.26 380.81,103.26 379.90,103.20 378.99,103.09 378.09,102.91 377.20,102.68 376.33,102.40 375.48,102.05 374.65,101.66 373.85,101.21 373.08,100.72 372.34,100.18 371.64,99.59 370.97,98.95 370.35,98.28 369.77,97.57 369.24,96.82 368.76,96.04 368.32,95.23 367.94,94.40 367.62,93.54 367.34,92.67 367.13,91.78 366.97,90.87 366.87,89.96 366.82,89.05 366.84,88.13 366.91,87.22 367.04,86.31 367.23,85.41 367.47,84.53 367.77,83.66 368.13,82.82 368.53,82.00 368.99,81.20 369.50,80.44 370.06,79.71 370.66,79.02 371.30,78.36 371.98,77.75 372.70,77.18 373.46,76.66 374.24,76.19 375.06,75.77 375.90,75.41 376.76,75.09 377.64,74.83 378.53,74.63 379.44,74.49 380.35,74.40 381.27,74.37" style="stroke-width: 0.61;stroke: none;fill: #FFFFFF;" />
<polygon points="381.27,74.37 382.19,74.40 383.10,74.49 384.00,74.63 384.90,74.83 385.78,75.09 386.64,75.41 387.48,75.77 388.29,76.19 389.08,76.66 389.84,77.18 390.56,77.75 391.24,78.36 391.88,79.02 392.48,79.71 393.04,80.44 393.55,81.20 394.00,82.00 394.41,82.82 394.77,83.66 395.07,84.53 395.31,85.41 395.50,86.31 395.63,87.22 395.70,88.13 395.72,89.05 395.67,89.96 395.57,90.87 395.41,91.78 395.19,92.67 394.92,93.54 394.60,94.40 394.21,95.23 393.78,96.04 393.30,96.82 392.77,97.57 392.19,98.28 391.57,98.95 390.90,99.59 390.20,100.18 389.46,100.72 388.69,101.21 387.89,101.66 387.06,102.05 386.21,102.40 385.34,102.68 384.45,102.91 383.55,103.09 382.64,103.20 381.73,103.26 380.81,103.26 379.90,103.20 378.99,103.09 378.09,102.91 377.20,102.68 376.33,102.40 375.48,102.05 374.65,101.66 373.85,101.21 373.08,100.72 372.34,100.18 371.64,99.59 370.97,98.95 370.35,98.28 369.77,97.57 369.24,96.82 368.76,96.04 368.32,95.23 367.94,94.40 367.62,93.54 367.34,92.67 367.13,91.78 366.97,90.87 366.87,89.96 366.82,89.05 366.84,88.13 366.91,87.22 367.04,86.31 367.23,85.41 367.47,84.53 367.77,83.66 368.13,82.82 368.53,82.00 368.99,81.20 369.50,80.44 370.06,79.71 370.66,79.02 371.30,78.36 371.98,77.75 372.70,77.18 373.46,76.66 374.24,76.19 375.06,75.77 375.90,75.41 376.76,75.09 377.64,74.83 378.53,74.63 379.44,74.49 380.35,74.40 381.27,74.37" style="stroke-width: 0.61;" />
<polygon points="119.04,29.86 119.96,29.89 120.87,29.98 121.77,30.12 122.67,30.32 123.55,30.58 124.41,30.89 125.25,31.26 126.06,31.68 126.85,32.15 127.61,32.67 128.33,33.24 129.01,33.85 129.65,34.50 130.25,35.20 130.81,35.93 131.32,36.69 131.78,37.48 132.18,38.31 132.54,39.15 132.84,40.02 133.08,40.90 133.27,41.80 133.40,42.71 133.47,43.62 133.49,44.54 133.44,45.45 133.34,46.36 133.18,47.27 132.97,48.16 132.69,49.03 132.37,49.89 131.99,50.72 131.55,51.53 131.07,52.31 130.54,53.06 129.96,53.77 129.34,54.44 128.67,55.08 127.97,55.66 127.23,56.21 126.46,56.70 125.66,57.15 124.83,57.54 123.98,57.88 123.11,58.17 122.22,58.40 121.32,58.57 120.41,58.69 119.50,58.75 118.58,58.75 117.67,58.69 116.76,58.57 115.86,58.40 114.97,58.17 114.10,57.88 113.25,57.54 112.42,57.15 111.62,56.70 110.85,56.21 110.11,55.66 109.41,55.08 108.74,54.44 108.12,53.77 107.54,53.06 107.01,52.31 106.53,51.53 106.10,50.72 105.71,49.89 105.39,49.03 105.12,48.16 104.90,47.27 104.74,46.36 104.64,45.45 104.59,44.54 104.61,43.62 104.68,42.71 104.81,41.80 105.00,40.90 105.24,40.02 105.54,39.15 105.90,38.31 106.31,37.48 106.76,36.69 107.27,35.93 107.83,35.20 108.43,34.50 109.07,33.85 109.75,33.24 110.47,32.67 111.23,32.15 112.02,31.68 112.83,31.26 113.67,30.89 114.53,30.58 115.41,30.32 116.31,30.12 117.21,29.98 118.12,29.89 119.04,29.86" style="stroke-width: 0.61;stroke: none;fill: #FFFFFF;" />
<polygon points="119.04,29.86 119.96,29.89 120.87,29.98 121.77,30.12 122.67,30.32 123.55,30.58 124.41,30.89 125.25,31.26 126.06,31.68 126.85,32.15 127.61,32.67 128.33,33.24 129.01,33.85 129.65,34.50 130.25,35.20 130.81,35.93 131.32,36.69 131.78,37.48 132.18,38.31 132.54,39.15 132.84,40.02 133.08,40.90 133.27,41.80 133.40,42.71 133.47,43.62 133.49,44.54 133.44,45.45 133.34,46.36 133.18,47.27 132.97,48.16 132.69,49.03 132.37,49.89 131.99,50.72 131.55,51.53 131.07,52.31 130.54,53.06 129.96,53.77 129.34,54.44 128.67,55.08 127.97,55.66 127.23,56.21 126.46,56.70 125.66,57.15 124.83,57.54 123.98,57.88 123.11,58.17 122.22,58.40 121.32,58.57 120.41,58.69 119.50,58.75 118.58,58.75 117.67,58.69 116.76,58.57 115.86,58.40 114.97,58.17 114.10,57.88 113.25,57.54 112.42,57.15 111.62,56.70 110.85,56.21 110.11,55.66 109.41,55.08 108.74,54.44 108.12,53.77 107.54,53.06 107.01,52.31 106.53,51.53 106.10,50.72 105.71,49.89 105.39,49.03 105.12,48.16 104.90,47.27 104.74,46.36 104.64,45.45 104.59,44.54 104.61,43.62 104.68,42.71 104.81,41.80 105.00,40.90 105.24,40.02 105.54,39.15 105.90,38.31 106.31,37.48 106.76,36.69 107.27,35.93 107.83,35.20 108.43,34.50 109.07,33.85 109.75,33.24 110.47,32.67 111.23,32.15 112.02,31.68 112.83,31.26 113.67,30.89 114.53,30.58 115.41,30.32 116.31,30.12 117.21,29.98 118.12,29.89 119.04,29.86" style="stroke-width: 0.61;" />
<polygon points="214.24,224.08 215.16,224.11 216.07,224.20 216.98,224.34 217.87,224.54 218.75,224.80 219.61,225.11 220.45,225.48 221.27,225.90 222.06,226.37 222.81,226.89 223.53,227.46 224.22,228.07 224.86,228.72 225.46,229.42 226.01,230.15 226.52,230.91 226.98,231.70 227.39,232.53 227.74,233.37 228.04,234.24 228.29,235.12 228.47,236.02 228.60,236.93 228.68,237.84 228.69,238.76 228.65,239.67 228.55,240.58 228.39,241.49 228.17,242.38 227.90,243.25 227.57,244.11 227.19,244.94 226.76,245.75 226.27,246.53 225.74,247.28 225.16,247.99 224.54,248.66 223.88,249.29 223.18,249.88 222.44,250.43 221.67,250.92 220.87,251.37 220.04,251.76 219.19,252.10 218.32,252.39 217.43,252.62 216.53,252.79 215.62,252.91 214.70,252.97 213.79,252.97 212.87,252.91 211.96,252.79 211.06,252.62 210.17,252.39 209.30,252.10 208.45,251.76 207.62,251.37 206.82,250.92 206.05,250.43 205.31,249.88 204.61,249.29 203.95,248.66 203.33,247.99 202.75,247.28 202.22,246.53 201.73,245.75 201.30,244.94 200.92,244.11 200.59,243.25 200.32,242.38 200.10,241.49 199.94,240.58 199.84,239.67 199.80,238.76 199.81,237.84 199.89,236.93 200.02,236.02 200.20,235.12 200.45,234.24 200.75,233.37 201.10,232.53 201.51,231.70 201.97,230.91 202.48,230.15 203.03,229.42 203.63,228.72 204.27,228.07 204.96,227.46 205.68,226.89 206.43,226.37 207.22,225.90 208.04,225.48 208.88,225.11 209.74,224.80 210.62,224.54 211.51,224.34 212.42,224.20 213.33,224.11 214.24,224.08" style="stroke-width: 0.61;stroke: none;fill: #FFFFFF;" />
<polygon points="214.24,224.08 215.16,224.11 216.07,224.20 216.98,224.34 217.87,224.54 218.75,224.80 219.61,225.11 220.45,225.48 221.27,225.90 222.06,226.37 222.81,226.89 223.53,227.46 224.22,228.07 224.86,228.72 225.46,229.42 226.01,230.15 226.52,230.91 226.98,231.70 227.39,232.53 227.74,233.37 228.04,234.24 228.29,235.12 228.47,236.02 228.60,236.93 228.68,237.84 228.69,238.76 228.65,239.67 228.55,240.58 228.39,241.49 228.17,242.38 227.90,243.25 227.57,244.11 227.19,244.94 226.76,245.75 226.27,246.53 225.74,247.28 225.16,247.99 224.54,248.66 223.88,249.29 223.18,249.88 222.44,250.43 221.67,250.92 220.87,251.37 220.04,251.76 219.19,252.10 218.32,252.39 217.43,252.62 216.53,252.79 215.62,252.91 214.70,252.97 213.79,252.97 212.87,252.91 211.96,252.79 211.06,252.62 210.17,252.39 209.30,252.10 208.45,251.76 207.62,251.37 206.82,250.92 206.05,250.43 205.31,249.88 204.61,249.29 203.95,248.66 203.33,247.99 202.75,247.28 202.22,246.53 201.73,245.75 201.30,244.94 200.92,244.11 200.59,243.25 200.32,242.38 200.10,241.49 199.94,240.58 199.84,239.67 199.80,238.76 199.81,237.84 199.89,236.93 200.02,236.02 200.20,235.12 200.45,234.24 200.75,233.37 201.10,232.53 201.51,231.70 201.97,230.91 202.48,230.15 203.03,229.42 203.63,228.72 204.27,228.07 204.96,227.46 205.68,226.89 206.43,226.37 207.22,225.90 208.04,225.48 208.88,225.11 209.74,224.80 210.62,224.54 211.51,224.34 212.42,224.20 213.33,224.11 214.24,224.08" style="stroke-width: 0.61;" />
<polygon points="345.94,164.73 346.86,164.76 347.77,164.85 348.67,164.99 349.57,165.19 350.45,165.45 351.31,165.77 352.15,166.13 352.96,166.55 353.75,167.02 354.51,167.54 355.23,168.11 355.91,168.72 356.55,169.38 357.15,170.07 357.71,170.80 358.22,171.56 358.67,172.36 359.08,173.18 359.44,174.02 359.74,174.89 359.98,175.77 360.17,176.67 360.30,177.58 360.37,178.49 360.39,179.41 360.34,180.32 360.24,181.24 360.08,182.14 359.87,183.03 359.59,183.90 359.27,184.76 358.88,185.59 358.45,186.40 357.97,187.18 357.44,187.93 356.86,188.64 356.24,189.31 355.57,189.95 354.87,190.54 354.13,191.08 353.36,191.57 352.56,192.02 351.73,192.41 350.88,192.76 350.01,193.04 349.12,193.27 348.22,193.45 347.31,193.56 346.40,193.62 345.48,193.62 344.57,193.56 343.66,193.45 342.76,193.27 341.87,193.04 341.00,192.76 340.15,192.41 339.32,192.02 338.52,191.57 337.75,191.08 337.01,190.54 336.31,189.95 335.64,189.31 335.02,188.64 334.44,187.93 333.91,187.18 333.43,186.40 332.99,185.59 332.61,184.76 332.29,183.90 332.01,183.03 331.80,182.14 331.64,181.24 331.54,180.32 331.49,179.41 331.51,178.49 331.58,177.58 331.71,176.67 331.90,175.77 332.14,174.89 332.44,174.02 332.80,173.18 333.20,172.36 333.66,171.56 334.17,170.80 334.73,170.07 335.33,169.38 335.97,168.72 336.65,168.11 337.37,167.54 338.13,167.02 338.92,166.55 339.73,166.13 340.57,165.77 341.43,165.45 342.31,165.19 343.21,164.99 344.11,164.85 345.02,164.76 345.94,164.73" style="stroke-width: 0.61;stroke: none;fill: #FFFFFF;" />
<polygon points="345.94,164.73 346.86,164.76 347.77,164.85 348.67,164.99 349.57,165.19 350.45,165.45 351.31,165.77 352.15,166.13 352.96,166.55 353.75,167.02 354.51,167.54 355.23,168.11 355.91,168.72 356.55,169.38 357.15,170.07 357.71,170.80 358.22,171.56 358.67,172.36 359.08,173.18 359.44,174.02 359.74,174.89 359.98,175.77 360.17,176.67 360.30,177.58 360.37,178.49 360.39,179.41 360.34,180.32 360.24,181.24 360.08,182.14 359.87,183.03 359.59,183.90 359.27,184.76 358.88,185.59 358.45,186.40 357.97,187.18 357.44,187.93 356.86,188.64 356.24,189.31 355.57,189.95 354.87,190.54 354.13,191.08 353.36,191.57 352.56,192.02 351.73,192.41 350.88,192.76 350.01,193.04 349.12,193.27 348.22,193.45 347.31,193.56 346.40,193.62 345.48,193.62 344.57,193.56 343.66,193.45 342.76,193.27 341.87,193.04 341.00,192.76 340.15,192.41 339.32,192.02 338.52,191.57 337.75,191.08 337.01,190.54 336.31,189.95 335.64,189.31 335.02,188.64 334.44,187.93 333.91,187.18 333.43,186.40 332.99,185.59 332.61,184.76 332.29,183.90 332.01,183.03 331.80,182.14 331.64,181.24 331.54,180.32 331.49,179.41 331.51,178.49 331.58,177.58 331.71,176.67 331.90,175.77 332.14,174.89 332.44,174.02 332.80,173.18 333.20,172.36 333.66,171.56 334.17,170.80 334.73,170.07 335.33,169.38 335.97,168.72 336.65,168.11 337.37,167.54 338.13,167.02 338.92,166.55 339.73,166.13 340.57,165.77 341.43,165.45 342.31,165.19 343.21,164.99 344.11,164.85 345.02,164.76 345.94,164.73" style="stroke-width: 0.61;" />
<polygon points="49.73,140.50 50.65,140.52 51.56,140.61 52.47,140.76 53.36,140.96 54.24,141.22 55.10,141.53 55.94,141.90 56.76,142.32 57.54,142.79 58.30,143.31 59.02,143.88 59.70,144.49 60.34,145.14 60.94,145.83 61.50,146.56 62.01,147.33 62.47,148.12 62.87,148.94 63.23,149.79 63.53,150.65 63.77,151.54 63.96,152.43 64.09,153.34 64.16,154.26 64.18,155.17 64.13,156.09 64.03,157.00 63.87,157.90 63.66,158.79 63.38,159.67 63.06,160.53 62.68,161.36 62.24,162.17 61.76,162.95 61.23,163.69 60.65,164.40 60.03,165.08 59.36,165.71 58.66,166.30 57.92,166.84 57.15,167.34 56.35,167.79 55.52,168.18 54.67,168.52 53.80,168.81 52.91,169.04 52.01,169.21 51.10,169.33 50.19,169.38 49.27,169.38 48.36,169.33 47.45,169.21 46.55,169.04 45.66,168.81 44.79,168.52 43.94,168.18 43.11,167.79 42.31,167.34 41.54,166.84 40.80,166.30 40.10,165.71 39.43,165.08 38.81,164.40 38.23,163.69 37.70,162.95 37.22,162.17 36.79,161.36 36.40,160.53 36.08,159.67 35.81,158.79 35.59,157.90 35.43,157.00 35.33,156.09 35.28,155.17 35.30,154.26 35.37,153.34 35.50,152.43 35.69,151.54 35.93,150.65 36.23,149.79 36.59,148.94 37.00,148.12 37.45,147.33 37.96,146.56 38.52,145.83 39.12,145.14 39.76,144.49 40.44,143.88 41.16,143.31 41.92,142.79 42.71,142.32 43.52,141.90 44.36,141.53 45.22,141.22 46.10,140.96 47.00,140.76 47.90,140.61 48.81,140.52 49.73,140.50" style="stroke-width: 0.61;stroke: none;fill: #FFFFFF;" />
<polygon points="49.73,140.50 50.65,140.52 51.56,140.61 52.47,140.76 53.36,140.96 54.24,141.22 55.10,141.53 55.94,141.90 56.76,142.32 57.54,142.79 58.30,143.31 59.02,143.88 59.70,144.49 60.34,145.14 60.94,145.83 61.50,146.56 62.01,147.33 62.47,148.12 62.87,148.94 63.23,149.79 63.53,150.65 63.77,151.54 63.96,152.43 64.09,153.34 64.16,154.26 64.18,155.17 64.13,156.09 64.03,157.00 63.87,157.90 63.66,158.79 63.38,159.67 63.06,160.53 62.68,161.36 62.24,162.17 61.76,162.95 61.23,163.69 60.65,164.40 60.03,165.08 59.36,165.71 58.66,166.30 57.92,166.84 57.15,167.34 56.35,167.79 55.52,168.18 54.67,168.52 53.80,168.81 52.91,169.04 52.01,169.21 51.10,169.33 50.19,169.38 49.27,169.38 48.36,169.33 47.45,169.21 46.55,169.04 45.66,168.81 44.79,168.52 43.94,168.18 43.11,167.79 42.31,167.34 41.54,166.84 40.80,166.30 40.10,165.71 39.43,165.08 38.81,164.40 38.23,163.69 37.70,162.95 37.22,162.17 36.79,161.36 36.40,160.53 36.08,159.67 35.81,158.79 35.59,157.90 35.43,157.00 35.33,156.09 35.28,155.17 35.30,154.26 35.37,153.34 35.50,152.43 35.69,151.54 35.93,150.65 36.23,149.79 36.59,148.94 37.00,148.12 37.45,147.33 37.96,146.56 38.52,145.83 39.12,145.14 39.76,144.49 40.44,143.88 41.16,143.31 41.92,142.79 42.71,142.32 43.52,141.90 44.36,141.53 45.22,141.22 46.10,140.96 47.00,140.76 47.90,140.61 48.81,140.52 49.73,140.50" style="stroke-width: 0.61;" />
<polygon points="277.70,305.31 278.62,305.34 279.53,305.42 280.44,305.57 281.33,305.77 282.21,306.03 283.07,306.34 283.91,306.71 284.73,307.13 285.51,307.60 286.27,308.12 286.99,308.69 287.67,309.30 288.32,309.95 288.92,310.65 289.47,311.38 289.98,312.14 290.44,312.93 290.85,313.75 291.20,314.60 291.50,315.47 291.74,316.35 291.93,317.25 292.06,318.15 292.13,319.07 292.15,319.98 292.11,320.90 292.00,321.81 291.84,322.71 291.63,323.61 291.36,324.48 291.03,325.34 290.65,326.17 290.22,326.98 289.73,327.76 289.20,328.51 288.62,329.22 288.00,329.89 287.34,330.52 286.63,331.11 285.90,331.66 285.12,332.15 284.32,332.60 283.50,332.99 282.64,333.33 281.77,333.62 280.89,333.85 279.99,334.02 279.08,334.14 278.16,334.20 277.25,334.20 276.33,334.14 275.42,334.02 274.52,333.85 273.63,333.62 272.76,333.33 271.91,332.99 271.08,332.60 270.28,332.15 269.51,331.66 268.77,331.11 268.07,330.52 267.41,329.89 266.78,329.22 266.21,328.51 265.67,327.76 265.19,326.98 264.76,326.17 264.38,325.34 264.05,324.48 263.78,323.61 263.56,322.71 263.40,321.81 263.30,320.90 263.26,319.98 263.27,319.07 263.34,318.15 263.48,317.25 263.66,316.35 263.91,315.47 264.21,314.60 264.56,313.75 264.97,312.93 265.43,312.14 265.93,311.38 266.49,310.65 267.09,309.95 267.73,309.30 268.42,308.69 269.14,308.12 269.89,307.60 270.68,307.13 271.49,306.71 272.33,306.34 273.20,306.03 274.07,305.77 274.97,305.57 275.87,305.42 276.79,305.34 277.70,305.31" style="stroke-width: 0.61;stroke: none;fill: #FFFFFF;" />
<polygon points="277.70,305.31 278.62,305.34 279.53,305.42 280.44,305.57 281.33,305.77 282.21,306.03 283.07,306.34 283.91,306.71 284.73,307.13 285.51,307.60 286.27,308.12 286.99,308.69 287.67,309.30 288.32,309.95 288.92,310.65 289.47,311.38 289.98,312.14 290.44,312.93 290.85,313.75 291.20,314.60 291.50,315.47 291.74,316.35 291.93,317.25 292.06,318.15 292.13,319.07 292.15,319.98 292.11,320.90 292.00,321.81 291.84,322.71 291.63,323.61 291.36,324.48 291.03,325.34 290.65,326.17 290.22,326.98 289.73,327.76 289.20,328.51 288.62,329.22 288.00,329.89 287.34,330.52 286.63,331.11 285.90,331.66 285.12,332.15 284.32,332.60 283.50,332.99 282.64,333.33 281.77,333.62 280.89,333.85 279.99,334.02 279.08,334.14 278.16,334.20 277.25,334.20 276.33,334.14 275.42,334.02 274.52,333.85 273.63,333.62 272.76,333.33 271.91,332.99 271.08,332.60 270.28,332.15 269.51,331.66 268.77,331.11 268.07,330.52 267.41,329.89 266.78,329.22 266.21,328.51 265.67,327.76 265.19,326.98 264.76,326.17 264.38,325.34 264.05,324.48 263.78,323.61 263.56,322.71 263.40,321.81 263.30,320.90 263.26,319.98 263.27,319.07 263.34,318.15 263.48,317.25 263.66,316.35 263.91,315.47 264.21,314.60 264.56,313.75 264.97,312.93 265.43,312.14 265.93,311.38 266.49,310.65 267.09,309.95 267.73,309.30 268.42,308.69 269.14,308.12 269.89,307.60 270.68,307.13 271.49,306.71 272.33,306.34 273.20,306.03 274.07,305.77 274.97,305.57 275.87,305.42 276.79,305.34 277.70,305.31" style="stroke-width: 0.61;" />
<polygon points="244.08,46.83 245.00,46.86 245.91,46.95 246.82,47.09 247.71,47.29 248.59,47.55 249.45,47.86 250.29,48.23 251.11,48.65 251.90,49.12 252.65,49.64 253.37,50.21 254.05,50.82 254.70,51.47 255.30,52.17 255.85,52.90 256.36,53.66 256.82,54.45 257.23,55.28 257.58,56.12 257.88,56.99 258.12,57.87 258.31,58.77 258.44,59.68 258.52,60.59 258.53,61.51 258.49,62.42 258.38,63.33 258.23,64.24 258.01,65.13 257.74,66.00 257.41,66.86 257.03,67.69 256.60,68.50 256.11,69.28 255.58,70.03 255.00,70.74 254.38,71.41 253.72,72.04 253.02,72.63 252.28,73.18 251.51,73.67 250.70,74.12 249.88,74.51 249.03,74.85 248.15,75.14 247.27,75.37 246.37,75.54 245.46,75.66 244.54,75.72 243.63,75.72 242.71,75.66 241.80,75.54 240.90,75.37 240.01,75.14 239.14,74.85 238.29,74.51 237.46,74.12 236.66,73.67 235.89,73.18 235.15,72.63 234.45,72.04 233.79,71.41 233.17,70.74 232.59,70.03 232.06,69.28 231.57,68.50 231.14,67.69 230.76,66.86 230.43,66.00 230.16,65.13 229.94,64.24 229.78,63.33 229.68,62.42 229.64,61.51 229.65,60.59 229.73,59.68 229.86,58.77 230.04,57.87 230.29,56.99 230.59,56.12 230.94,55.28 231.35,54.45 231.81,53.66 232.32,52.90 232.87,52.17 233.47,51.47 234.11,50.82 234.80,50.21 235.52,49.64 236.27,49.12 237.06,48.65 237.87,48.23 238.71,47.86 239.58,47.55 240.46,47.29 241.35,47.09 242.26,46.95 243.17,46.86 244.08,46.83" style="stroke-width: 0.61;stroke: none;fill: #FFFFFF;" />
<polygon points="244.08,46.83 245.00,46.86 245.91,46.95 246.82,47.09 247.71,47.29 248.59,47.55 249.45,47.86 250.29,48.23 251.11,48.65 251.90,49.12 252.65,49.64 253.37,50.21 254.05,50.82 254.70,51.47 255.30,52.17 255.85,52.90 256.36,53.66 256.82,54.45 257.23,55.28 257.58,56.12 257.88,56.99 258.12,57.87 258.31,58.77 258.44,59.68 258.52,60.59 258.53,61.51 258.49,62.42 258.38,63.33 258.23,64.24 258.01,65.13 257.74,66.00 257.41,66.86 257.03,67.69 256.60,68.50 256.11,69.28 255.58,70.03 255.00,70.74 254.38,71.41 253.72,72.04 253.02,72.63 252.28,73.18 251.51,73.67 250.70,74.12 249.88,74.51 249.03,74.85 248.15,75.14 247.27,75.37 246.37,75.54 245.46,75.66 244.54,75.72 243.63,75.72 242.71,75.66 241.80,75.54 240.90,75.37 240.01,75.14 239.14,74.85 238.29,74.51 237.46,74.12 236.66,73.67 235.89,73.18 235.15,72.63 234.45,72.04 233.79,71.41 233.17,70.74 232.59,70.03 232.06,69.28 231.57,68.50 231.14,67.69 230.76,66.86 230.43,66.00 230.16,65.13 229.94,64.24 229.78,63.33 229.68,62.42 229.64,61.51 229.65,60.59 229.73,59.68 229.86,58.77 230.04,57.87 230.29,56.99 230.59,56.12 230.94,55.28 231.35,54.45 231.81,53.66 232.32,52.90 232.87,52.17 233.47,51.47 234.11,50.82 234.80,50.21 235.52,49.64 236.27,49.12 237.06,48.65 237.87,48.23 238.71,47.86 239.58,47.55 240.46,47.29 241.35,47.09 242.26,46.95 243.17,46.86 244.08,46.83" style="stroke-width: 0.61;" />
<polygon points="78.69,242.14 79.61,242.17 80.52,242.25 81.42,242.40 82.32,242.60 83.20,242.86 84.06,243.17 84.90,243.54 85.71,243.96 86.50,244.43 87.26,244.95 87.98,245.52 88.66,246.13 89.30,246.78 89.90,247.47 90.46,248.20 90.97,248.97 91.42,249.76 91.83,250.58 92.19,251.43 92.49,252.29 92.73,253.18 92.92,254.08 93.05,254.98 93.12,255.90 93.14,256.81 93.09,257.73 92.99,258.64 92.83,259.54 92.62,260.43 92.34,261.31 92.02,262.17 91.63,263.00 91.20,263.81 90.72,264.59 90.19,265.33 89.61,266.05 88.99,266.72 88.32,267.35 87.62,267.94 86.88,268.48 86.11,268.98 85.31,269.43 84.48,269.82 83.63,270.16 82.76,270.45 81.87,270.68 80.97,270.85 80.06,270.97 79.15,271.03 78.23,271.03 77.32,270.97 76.41,270.85 75.51,270.68 74.62,270.45 73.75,270.16 72.90,269.82 72.07,269.43 71.27,268.98 70.50,268.48 69.76,267.94 69.06,267.35 68.39,266.72 67.77,266.05 67.19,265.33 66.66,264.59 66.18,263.81 65.74,263.00 65.36,262.17 65.04,261.31 64.76,260.43 64.55,259.54 64.39,258.64 64.29,257.73 64.24,256.81 64.26,255.90 64.33,254.98 64.46,254.08 64.65,253.18 64.89,252.29 65.19,251.43 65.55,250.58 65.95,249.76 66.41,248.97 66.92,248.20 67.48,247.47 68.08,246.78 68.72,246.13 69.40,245.52 70.12,244.95 70.88,244.43 71.67,243.96 72.48,243.54 73.32,243.17 74.18,242.86 75.06,242.60 75.96,242.40 76.86,242.25 77.77,242.17 78.69,242.14" style="stroke-width: 0.61;stroke: none;fill: #FFFFFF;" />
<polygon points="78.69,242.14 79.61,242.17 80.52,242.25 81.42,242.40 82.32,242.60 83.20,242.86 84.06,243.17 84.90,243.54 85.71,243.96 86.50,244.43 87.26,244.95 87.98,245.52 88.66,246.13 89.30,246.78 89.90,247.47 90.46,248.20 90.97,248.97 91.42,249.76 91.83,250.58 92.19,251.43 92.49,252.29 92.73,253.18 92.92,254.08 93.05,254.98 93.12,255.90 93.14,256.81 93.09,257.73 92.99,258.64 92.83,259.54 92.62,260.43 92.34,261.31 92.02,262.17 91.63,263.00 91.20,263.81 90.72,264.59 90.19,265.33 89.61,266.05 88.99,266.72 88.32,267.35 87.62,267.94 86.88,268.48 86.11,268.98 85.31,269.43 84.48,269.82 83.63,270.16 82.76,270.45 81.87,270.68 80.97,270.85 80.06,270.97 79.15,271.03 78.23,271.03 77.32,270.97 76.41,270.85 75.51,270.68 74.62,270.45 73.75,270.16 72.90,269.82 72.07,269.43 71.27,268.98 70.50,268.48 69.76,267.94 69.06,267.35 68.39,266.72 67.77,266.05 67.19,265.33 66.66,264.59 66.18,263.81 65.74,263.00 65.36,262.17 65.04,261.31 64.76,260.43 64.55,259.54 64.39,258.64 64.29,257.73 64.24,256.81 64.26,255.90 64.33,254.98 64.46,254.08 64.65,253.18 64.89,252.29 65.19,251.43 65.55,250.58 65.95,249.76 66.41,248.97 66.92,248.20 67.48,247.47 68.08,246.78 68.72,246.13 69.40,245.52 70.12,244.95 70.88,244.43 71.67,243.96 72.48,243.54 73.32,243.17 74.18,242.86 75.06,242.60 75.96,242.40 76.86,242.25 77.77,242.17 78.69,242.14" style="stroke-width: 0.61;" />
<polygon points="213.94,145.53 214.86,145.56 215.77,145.65 216.68,145.79 217.57,146.00 218.45,146.25 219.31,146.57 220.15,146.94 220.97,147.36 221.75,147.83 222.51,148.35 223.23,148.91 223.91,149.52 224.55,150.18 225.16,150.87 225.71,151.60 226.22,152.36 226.68,153.16 227.08,153.98 227.44,154.83 227.74,155.69 227.98,156.58 228.17,157.47 228.30,158.38 228.37,159.29 228.39,160.21 228.34,161.13 228.24,162.04 228.08,162.94 227.87,163.83 227.59,164.71 227.27,165.56 226.89,166.40 226.45,167.21 225.97,167.98 225.44,168.73 224.86,169.44 224.24,170.12 223.57,170.75 222.87,171.34 222.13,171.88 221.36,172.38 220.56,172.82 219.73,173.22 218.88,173.56 218.01,173.84 217.12,174.07 216.22,174.25 215.32,174.36 214.40,174.42 213.48,174.42 212.57,174.36 211.66,174.25 210.76,174.07 209.87,173.84 209.00,173.56 208.15,173.22 207.32,172.82 206.52,172.38 205.75,171.88 205.01,171.34 204.31,170.75 203.64,170.12 203.02,169.44 202.44,168.73 201.91,167.98 201.43,167.21 201.00,166.40 200.62,165.56 200.29,164.71 200.02,163.83 199.80,162.94 199.64,162.04 199.54,161.13 199.50,160.21 199.51,159.29 199.58,158.38 199.71,157.47 199.90,156.58 200.15,155.69 200.45,154.83 200.80,153.98 201.21,153.16 201.67,152.36 202.17,151.60 202.73,150.87 203.33,150.18 203.97,149.52 204.65,148.91 205.38,148.35 206.13,147.83 206.92,147.36 207.73,146.94 208.57,146.57 209.43,146.25 210.31,146.00 211.21,145.79 212.11,145.65 213.03,145.56 213.94,145.53" style="stroke-width: 0.61;stroke: none;fill: #FFFFFF;" />
<polygon points="213.94,145.53 214.86,145.56 215.77,145.65 216.68,145.79 217.57,146.00 218.45,146.25 219.31,146.57 220.15,146.94 220.97,147.36 221.75,147.83 222.51,148.35 223.23,148.91 223.91,149.52 224.55,150.18 225.16,150.87 225.71,151.60 226.22,152.36 226.68,153.16 227.08,153.98 227.44,154.83 227.74,155.69 227.98,156.58 228.17,157.47 228.30,158.38 228.37,159.29 228.39,160.21 228.34,161.13 228.24,162.04 228.08,162.94 227.87,163.83 227.59,164.71 227.27,165.56 226.89,166.40 226.45,167.21 225.97,167.98 225.44,168.73 224.86,169.44 224.24,170.12 223.57,170.75 222.87,171.34 222.13,171.88 221.36,172.38 220.56,172.82 219.73,173.22 218.88,173.56 218.01,173.84 217.12,174.07 216.22,174.25 215.32,174.36 214.40,174.42 213.48,174.42 212.57,174.36 211.66,174.25 210.76,174.07 209.87,173.84 209.00,173.56 208.15,173.22 207.32,172.82 206.52,172.38 205.75,171.88 205.01,171.34 204.31,170.75 203.64,170.12 203.02,169.44 202.44,168.73 201.91,167.98 201.43,167.21 201.00,166.40 200.62,165.56 200.29,164.71 200.02,163.83 199.80,162.94 199.64,162.04 199.54,161.13 199.50,160.21 199.51,159.29 199.58,158.38 199.71,157.47 199.90,156.58 200.15,155.69 200.45,154.83 200.80,153.98 201.21,153.16 201.67,152.36 202.17,151.60 202.73,150.87 203.33,150.18 203.97,149.52 204.65,148.91 205.38,148.35 206.13,147.83 206.92,147.36 207.73,146.94 208.57,146.57 209.43,146.25 210.31,146.00 211.21,145.79 212.11,145.65 213.03,145.56 213.94,145.53" style="stroke-width: 0.61;" />
<polygon points="128.86,325.24 129.78,325.27 130.69,325.36 131.59,325.51 132.49,325.71 133.37,325.97 134.23,326.28 135.07,326.65 135.88,327.07 136.67,327.54 137.43,328.06 138.15,328.62 138.83,329.24 139.47,329.89 140.07,330.58 140.63,331.31 141.14,332.08 141.60,332.87 142.00,333.69 142.36,334.54 142.66,335.40 142.90,336.29 143.09,337.18 143.22,338.09 143.29,339.00 143.31,339.92 143.26,340.84 143.16,341.75 143.00,342.65 142.79,343.54 142.51,344.42 142.19,345.27 141.81,346.11 141.37,346.92 140.89,347.70 140.36,348.44 139.78,349.15 139.16,349.83 138.49,350.46 137.79,351.05 137.05,351.59 136.28,352.09 135.48,352.53 134.65,352.93 133.80,353.27 132.93,353.55 132.04,353.79 131.14,353.96 130.23,354.07 129.32,354.13 128.40,354.13 127.49,354.07 126.58,353.96 125.68,353.79 124.79,353.55 123.92,353.27 123.07,352.93 122.24,352.53 121.44,352.09 120.67,351.59 119.93,351.05 119.23,350.46 118.56,349.83 117.94,349.15 117.36,348.44 116.83,347.70 116.35,346.92 115.92,346.11 115.53,345.27 115.21,344.42 114.93,343.54 114.72,342.65 114.56,341.75 114.46,340.84 114.41,339.92 114.43,339.00 114.50,338.09 114.63,337.18 114.82,336.29 115.06,335.40 115.36,334.54 115.72,333.69 116.13,332.87 116.58,332.08 117.09,331.31 117.65,330.58 118.25,329.89 118.89,329.24 119.57,328.62 120.29,328.06 121.05,327.54 121.84,327.07 122.65,326.65 123.49,326.28 124.35,325.97 125.23,325.71 126.13,325.51 127.03,325.36 127.94,325.27 128.86,325.24" style="stroke-width: 0.61;stroke: none;fill: #FFFFFF;" />
<polygon points="128.86,325.24 129.78,325.27 130.69,325.36 131.59,325.51 132.49,325.71 133.37,325.97 134.23,326.28 135.07,326.65 135.88,327.07 136.67,327.54 137.43,328.06 138.15,328.62 138.83,329.24 139.47,329.89 140.07,330.58 140.63,331.31 141.14,332.08 141.60,332.87 142.00,333.69 142.36,334.54 142.66,335.40 142.90,336.29 143.09,337.18 143.22,338.09 143.29,339.00 143.31,339.92 143.26,340.84 143.16,341.75 143.00,342.65 142.79,343.54 142.51,344.42 142.19,345.27 141.81,346.11 141.37,346.92 140.89,347.70 140.36,348.44 139.78,349.15 139.16,349.83 138.49,350.46 137.79,351.05 137.05,351.59 136.28,352.09 135.48,352.53 134.65,352.93 133.80,353.27 132.93,353.55 132.04,353.79 131.14,353.96 130.23,354.07 129.32,354.13 128.40,354.13 127.49,354.07 126.58,353.96 125.68,353.79 124.79,353.55 123.92,353.27 123.07,352.93 122.24,352.53 121.44,352.09 120.67,351.59 119.93,351.05 119.23,350.46 118.56,349.83 117.94,349.15 117.36,348.44 116.83,347.70 116.35,346.92 115.92,346.11 115.53,345.27 115.21,344.42 114.93,343.54 114.72,342.65 114.56,341.75 114.46,340.84 114.41,339.92 114.43,339.00 114.50,338.09 114.63,337.18 114.82,336.29 115.06,335.40 115.36,334.54 115.72,333.69 116.13,332.87 116.58,332.08 117.09,331.31 117.65,330.58 118.25,329.89 118.89,329.24 119.57,328.62 120.29,328.06 121.05,327.54 121.84,327.07 122.65,326.65 123.49,326.28 124.35,325.97 125.23,325.71 126.13,325.51 127.03,325.36 127.94,325.27 128.86,325.24" style="stroke-width: 0.61;" />
<g><text x="381.27" y="92.21" text-anchor="middle" style="font-family: Arial;font-size: 9.48px;" textLength="5.26px" lengthAdjust="spacingAndGlyphs">1</text></g>
<g><text x="119.04" y="47.70" text-anchor="middle" style="font-family: Arial;font-size: 9.48px;" textLength="5.26px" lengthAdjust="spacingAndGlyphs">2</text></g>
<g><text x="214.24" y="241.92" text-anchor="middle" style="font-family: Arial;font-size: 9.48px;" textLength="5.26px" lengthAdjust="spacingAndGlyphs">3</text></g>
<g><text x="345.94" y="182.57" text-anchor="middle" style="font-family: Arial;font-size: 9.48px;" textLength="5.26px" lengthAdjust="spacingAndGlyphs">4</text></g>
<g><text x="49.73" y="158.34" text-anchor="middle" style="font-family: Arial;font-size: 9.48px;" textLength="5.26px" lengthAdjust="spacingAndGlyphs">5</text></g>
<g><text x="277.70" y="323.15" text-anchor="middle" style="font-family: Arial;font-size: 9.48px;" textLength="5.26px" lengthAdjust="spacingAndGlyphs">6</text></g>
<g><text x="244.08" y="64.67" text-anchor="middle" style="font-family: Arial;font-size: 9.48px;" textLength="5.26px" lengthAdjust="spacingAndGlyphs">7</text></g>
<g><text x="78.69" y="259.98" text-anchor="middle" style="font-family: Arial;font-size: 9.48px;" textLength="5.26px" lengthAdjust="spacingAndGlyphs">8</text></g>
<g><text x="213.94" y="163.38" text-anchor="middle" style="font-family: Arial;font-size: 9.48px;" textLength="5.26px" lengthAdjust="spacingAndGlyphs">9</text></g>
<g><text x="128.86" y="343.09" text-anchor="middle" style="font-family: Arial;font-size: 9.48px;" textLength="10.53px" lengthAdjust="spacingAndGlyphs">10</text></g>
<g><text x="60.96" y="34.06" style="font-family: Arial;font-size: 9.96px;font-weight: bold;" textLength="53.08px" lengthAdjust="spacingAndGlyphs">True Model</text></g>
<g><text x="227.45" y="368.46" text-anchor="middle" style="font-family: Arial;font-size: 9.96px;" textLength="204.14px" lengthAdjust="spacingAndGlyphs">Generated from (nodes = 10) &amp; (density = 0.4)</text></g>
</g><g clip-path='url(#c2)'>
<polygon points="505.32,301.83 513.54,301.83 513.54,289.64 505.32,289.64" style="stroke-width: 0.75;stroke: none;fill: #D3D3D3;" />
<line x1="505.32" y1="301.83" x2="513.54" y2="301.83" style="stroke-width: 2.25;stroke-linecap: butt;"/>
<line x1="509.43" y1="301.83" x2="509.43" y2="301.83" style="stroke-width: 0.75; stroke-dasharray: 4.00, 4.00;"/>
<line x1="509.43" y1="277.45" x2="509.43" y2="289.64" style="stroke-width: 0.75; stroke-dasharray: 4.00, 4.00;"/>
<line x1="507.37" y1="301.83" x2="511.48" y2="301.83" style="stroke-width: 0.75;"/>
<line x1="507.37" y1="277.45" x2="511.48" y2="277.45" style="stroke-width: 0.75;"/>
<polygon points="505.32,301.83 513.54,301.83 513.54,289.64 505.32,289.64" style="stroke-width: 0.75;" />
<circle cx="509.43" cy="265.26" r="1.86" style="stroke-width: 0.75;"/>
<polygon points="515.59,301.83 523.82,301.83 523.82,277.45 515.59,277.45" style="stroke-width: 0.75;stroke: none;fill: #D3D3D3;" />
<line x1="515.59" y1="301.83" x2="523.82" y2="301.83" style="stroke-width: 2.25;stroke-linecap: butt;"/>
<line x1="519.70" y1="301.83" x2="519.70" y2="301.83" style="stroke-width: 0.75; stroke-dasharray: 4.00, 4.00;"/>
<line x1="519.70" y1="253.07" x2="519.70" y2="277.45" style="stroke-width: 0.75; stroke-dasharray: 4.00, 4.00;"/>
<line x1="517.65" y1="301.83" x2="521.76" y2="301.83" style="stroke-width: 0.75;"/>
<line x1="517.65" y1="253.07" x2="521.76" y2="253.07" style="stroke-width: 0.75;"/>
<polygon points="515.59,301.83 523.82,301.83 523.82,277.45 515.59,277.45" style="stroke-width: 0.75;" />
<circle cx="519.70" cy="204.31" r="1.86" style="stroke-width: 0.75;"/>
<polygon points="525.87,301.83 534.09,301.83 534.09,246.97 525.87,246.97" style="stroke-width: 0.75;stroke: none;fill: #D3D3D3;" />
<line x1="525.87" y1="277.45" x2="534.09" y2="277.45" style="stroke-width: 2.25;stroke-linecap: butt;"/>
<line x1="529.98" y1="301.83" x2="529.98" y2="301.83" style="stroke-width: 0.75; stroke-dasharray: 4.00, 4.00;"/>
<line x1="529.98" y1="192.12" x2="529.98" y2="246.97" style="stroke-width: 0.75; stroke-dasharray: 4.00, 4.00;"/>
<line x1="527.93" y1="301.83" x2="532.04" y2="301.83" style="stroke-width: 0.75;"/>
<line x1="527.93" y1="192.12" x2="532.04" y2="192.12" style="stroke-width: 0.75;"/>
<polygon points="525.87,301.83 534.09,301.83 534.09,246.97 525.87,246.97" style="stroke-width: 0.75;" />
<polygon points="536.15,301.83 544.37,301.83 544.37,131.17 536.15,131.17" style="stroke-width: 0.75;stroke: none;fill: #D3D3D3;" />
<line x1="536.15" y1="161.64" x2="544.37" y2="161.64" style="stroke-width: 2.25;stroke-linecap: butt;"/>
<line x1="540.26" y1="301.83" x2="540.26" y2="301.83" style="stroke-width: 0.75; stroke-dasharray: 4.00, 4.00;"/>
<line x1="540.26" y1="106.79" x2="540.26" y2="131.17" style="stroke-width: 0.75; stroke-dasharray: 4.00, 4.00;"/>
<line x1="538.20" y1="301.83" x2="542.32" y2="301.83" style="stroke-width: 0.75;"/>
<line x1="538.20" y1="106.79" x2="542.32" y2="106.79" style="stroke-width: 0.75;"/>
<polygon points="536.15,301.83 544.37,301.83 544.37,131.17 536.15,131.17" style="stroke-width: 0.75;" />
<polygon points="546.43,289.64 554.65,289.64 554.65,161.64 546.43,161.64" style="stroke-width: 0.75;stroke: none;fill: #D3D3D3;" />
<line x1="546.43" y1="240.88" x2="554.65" y2="240.88" style="stroke-width: 2.25;stroke-linecap: butt;"/>
<line x1="550.54" y1="301.83" x2="550.54" y2="289.64" style="stroke-width: 0.75; stroke-dasharray: 4.00, 4.00;"/>
<line x1="550.54" y1="106.79" x2="550.54" y2="161.64" style="stroke-width: 0.75; stroke-dasharray: 4.00, 4.00;"/>
<line x1="548.48" y1="301.83" x2="552.59" y2="301.83" style="stroke-width: 0.75;"/>
<line x1="548.48" y1="106.79" x2="552.59" y2="106.79" style="stroke-width: 0.75;"/>
<polygon points="546.43,289.64 554.65,289.64 554.65,161.64 546.43,161.64" style="stroke-width: 0.75;" />
<polygon points="556.70,295.73 564.93,295.73 564.93,143.36 556.70,143.36" style="stroke-width: 0.75;stroke: none;fill: #D3D3D3;" />
<line x1="556.70" y1="210.40" x2="564.93" y2="210.40" style="stroke-width: 2.25;stroke-linecap: butt;"/>
<line x1="560.81" y1="301.83" x2="560.81" y2="295.73" style="stroke-width: 0.75; stroke-dasharray: 4.00, 4.00;"/>
<line x1="560.81" y1="118.98" x2="560.81" y2="143.36" style="stroke-width: 0.75; stroke-dasharray: 4.00, 4.00;"/>
<line x1="558.76" y1="301.83" x2="562.87" y2="301.83" style="stroke-width: 0.75;"/>
<line x1="558.76" y1="118.98" x2="562.87" y2="118.98" style="stroke-width: 0.75;"/>
<polygon points="556.70,295.73 564.93,295.73 564.93,143.36 556.70,143.36" style="stroke-width: 0.75;" />
<polygon points="566.98,271.35 575.20,271.35 575.20,118.98 566.98,118.98" style="stroke-width: 0.75;stroke: none;fill: #D3D3D3;" />
<line x1="566.98" y1="179.93" x2="575.20" y2="179.93" style="stroke-width: 2.25;stroke-linecap: butt;"/>
<line x1="571.09" y1="301.83" x2="571.09" y2="271.35" style="stroke-width: 0.75; stroke-dasharray: 4.00, 4.00;"/>
<line x1="571.09" y1="94.60" x2="571.09" y2="118.98" style="stroke-width: 0.75; stroke-dasharray: 4.00, 4.00;"/>
<line x1="569.04" y1="301.83" x2="573.15" y2="301.83" style="stroke-width: 0.75;"/>
<line x1="569.04" y1="94.60" x2="573.15" y2="94.60" style="stroke-width: 0.75;"/>
<polygon points="566.98,271.35 575.20,271.35 575.20,118.98 566.98,118.98" style="stroke-width: 0.75;" />
<polygon points="577.26,253.07 585.48,253.07 585.48,112.88 577.26,112.88" style="stroke-width: 0.75;stroke: none;fill: #D3D3D3;" />
<line x1="577.26" y1="155.55" x2="585.48" y2="155.55" style="stroke-width: 2.25;stroke-linecap: butt;"/>
<line x1="581.37" y1="301.83" x2="581.37" y2="253.07" style="stroke-width: 0.75; stroke-dasharray: 4.00, 4.00;"/>
<line x1="581.37" y1="94.60" x2="581.37" y2="112.88" style="stroke-width: 0.75; stroke-dasharray: 4.00, 4.00;"/>
<line x1="579.31" y1="301.83" x2="583.43" y2="301.83" style="stroke-width: 0.75;"/>
<line x1="579.31" y1="94.60" x2="583.43" y2="94.60" style="stroke-width: 0.75;"/>
<polygon points="577.26,253.07 585.48,253.07 585.48,112.88 577.26,112.88" style="stroke-width: 0.75;" />
<polygon points="587.54,149.45 595.76,149.45 595.76,118.98 587.54,118.98" style="stroke-width: 0.75;stroke: none;fill: #D3D3D3;" />
<line x1="587.54" y1="137.26" x2="595.76" y2="137.26" style="stroke-width: 2.25;stroke-linecap: butt;"/>
<line x1="591.65" y1="167.74" x2="591.65" y2="149.45" style="stroke-width: 0.75; stroke-dasharray: 4.00, 4.00;"/>
<line x1="591.65" y1="82.41" x2="591.65" y2="118.98" style="stroke-width: 0.75; stroke-dasharray: 4.00, 4.00;"/>
<line x1="589.59" y1="167.74" x2="593.70" y2="167.74" style="stroke-width: 0.75;"/>
<line x1="589.59" y1="82.41" x2="593.70" y2="82.41" style="stroke-width: 0.75;"/>
<polygon points="587.54,149.45 595.76,149.45 595.76,118.98 587.54,118.98" style="stroke-width: 0.75;" />
<circle cx="591.65" cy="289.64" r="1.86" style="stroke-width: 0.75;"/>
<circle cx="591.65" cy="253.07" r="1.86" style="stroke-width: 0.75;"/>
<polygon points="597.81,216.50 606.04,216.50 606.04,131.17 597.81,131.17" style="stroke-width: 0.75;stroke: none;fill: #D3D3D3;" />
<line x1="597.81" y1="167.74" x2="606.04" y2="167.74" style="stroke-width: 2.25;stroke-linecap: butt;"/>
<line x1="601.93" y1="301.83" x2="601.93" y2="216.50" style="stroke-width: 0.75; stroke-dasharray: 4.00, 4.00;"/>
<line x1="601.93" y1="82.41" x2="601.93" y2="131.17" style="stroke-width: 0.75; stroke-dasharray: 4.00, 4.00;"/>
<line x1="599.87" y1="301.83" x2="603.98" y2="301.83" style="stroke-width: 0.75;"/>
<line x1="599.87" y1="82.41" x2="603.98" y2="82.41" style="stroke-width: 0.75;"/>
<polygon points="597.81,216.50 606.04,216.50 606.04,131.17 597.81,131.17" style="stroke-width: 0.75;" />
<polygon points="608.09,173.83 616.31,173.83 616.31,94.60 608.09,94.60" style="stroke-width: 0.75;stroke: none;fill: #D3D3D3;" />
<line x1="608.09" y1="118.98" x2="616.31" y2="118.98" style="stroke-width: 2.25;stroke-linecap: butt;"/>
<line x1="612.20" y1="289.64" x2="612.20" y2="173.83" style="stroke-width: 0.75; stroke-dasharray: 4.00, 4.00;"/>
<line x1="612.20" y1="70.22" x2="612.20" y2="94.60" style="stroke-width: 0.75; stroke-dasharray: 4.00, 4.00;"/>
<line x1="610.15" y1="289.64" x2="614.26" y2="289.64" style="stroke-width: 0.75;"/>
<line x1="610.15" y1="70.22" x2="614.26" y2="70.22" style="stroke-width: 0.75;"/>
<polygon points="608.09,173.83 616.31,173.83 616.31,94.60 608.09,94.60" style="stroke-width: 0.75;" />
<polygon points="618.37,155.55 626.59,155.55 626.59,106.79 618.37,106.79" style="stroke-width: 0.75;stroke: none;fill: #D3D3D3;" />
<line x1="618.37" y1="131.17" x2="626.59" y2="131.17" style="stroke-width: 2.25;stroke-linecap: butt;"/>
<line x1="622.48" y1="228.69" x2="622.48" y2="155.55" style="stroke-width: 0.75; stroke-dasharray: 4.00, 4.00;"/>
<line x1="622.48" y1="82.41" x2="622.48" y2="106.79" style="stroke-width: 0.75; stroke-dasharray: 4.00, 4.00;"/>
<line x1="620.42" y1="228.69" x2="624.54" y2="228.69" style="stroke-width: 0.75;"/>
<line x1="620.42" y1="82.41" x2="624.54" y2="82.41" style="stroke-width: 0.75;"/>
<polygon points="618.37,155.55 626.59,155.55 626.59,106.79 618.37,106.79" style="stroke-width: 0.75;" />
<polygon points="628.65,155.55 636.87,155.55 636.87,94.60 628.65,94.60" style="stroke-width: 0.75;stroke: none;fill: #D3D3D3;" />
<line x1="628.65" y1="137.26" x2="636.87" y2="137.26" style="stroke-width: 2.25;stroke-linecap: butt;"/>
<line x1="632.76" y1="204.31" x2="632.76" y2="155.55" style="stroke-width: 0.75; stroke-dasharray: 4.00, 4.00;"/>
<line x1="632.76" y1="70.22" x2="632.76" y2="94.60" style="stroke-width: 0.75; stroke-dasharray: 4.00, 4.00;"/>
<line x1="630.70" y1="204.31" x2="634.81" y2="204.31" style="stroke-width: 0.75;"/>
<line x1="630.70" y1="70.22" x2="634.81" y2="70.22" style="stroke-width: 0.75;"/>
<polygon points="628.65,155.55 636.87,155.55 636.87,94.60 628.65,94.60" style="stroke-width: 0.75;" />
<circle cx="632.76" cy="301.83" r="1.86" style="stroke-width: 0.75;"/>
<polygon points="638.92,125.07 647.15,125.07 647.15,94.60 638.92,94.60" style="stroke-width: 0.75;stroke: none;fill: #D3D3D3;" />
<line x1="638.92" y1="106.79" x2="647.15" y2="106.79" style="stroke-width: 2.25;stroke-linecap: butt;"/>
<line x1="643.04" y1="143.36" x2="643.04" y2="125.07" style="stroke-width: 0.75; stroke-dasharray: 4.00, 4.00;"/>
<line x1="643.04" y1="70.22" x2="643.04" y2="94.60" style="stroke-width: 0.75; stroke-dasharray: 4.00, 4.00;"/>
<line x1="640.98" y1="143.36" x2="645.09" y2="143.36" style="stroke-width: 0.75;"/>
<line x1="640.98" y1="70.22" x2="645.09" y2="70.22" style="stroke-width: 0.75;"/>
<polygon points="638.92,125.07 647.15,125.07 647.15,94.60 638.92,94.60" style="stroke-width: 0.75;" />
<circle cx="643.04" cy="253.07" r="1.86" style="stroke-width: 0.75;"/>
<circle cx="643.04" cy="240.88" r="1.86" style="stroke-width: 0.75;"/>
<polygon points="649.20,137.26 657.42,137.26 657.42,94.60 649.20,94.60" style="stroke-width: 0.75;stroke: none;fill: #D3D3D3;" />
<line x1="649.20" y1="112.88" x2="657.42" y2="112.88" style="stroke-width: 2.25;stroke-linecap: butt;"/>
<line x1="653.31" y1="155.55" x2="653.31" y2="137.26" style="stroke-width: 0.75; stroke-dasharray: 4.00, 4.00;"/>
<line x1="653.31" y1="70.22" x2="653.31" y2="94.60" style="stroke-width: 0.75; stroke-dasharray: 4.00, 4.00;"/>
<line x1="651.26" y1="155.55" x2="655.37" y2="155.55" style="stroke-width: 0.75;"/>
<line x1="651.26" y1="70.22" x2="655.37" y2="70.22" style="stroke-width: 0.75;"/>
<polygon points="649.20,137.26 657.42,137.26 657.42,94.60 649.20,94.60" style="stroke-width: 0.75;" />
<circle cx="653.31" cy="216.50" r="1.86" style="stroke-width: 0.75;"/>
<polygon points="659.48,149.45 667.70,149.45 667.70,94.60 659.48,94.60" style="stroke-width: 0.75;stroke: none;fill: #D3D3D3;" />
<line x1="659.48" y1="106.79" x2="667.70" y2="106.79" style="stroke-width: 2.25;stroke-linecap: butt;"/>
<line x1="663.59" y1="228.69" x2="663.59" y2="149.45" style="stroke-width: 0.75; stroke-dasharray: 4.00, 4.00;"/>
<line x1="663.59" y1="70.22" x2="663.59" y2="94.60" style="stroke-width: 0.75; stroke-dasharray: 4.00, 4.00;"/>
<line x1="661.54" y1="228.69" x2="665.65" y2="228.69" style="stroke-width: 0.75;"/>
<line x1="661.54" y1="70.22" x2="665.65" y2="70.22" style="stroke-width: 0.75;"/>
<polygon points="659.48,149.45 667.70,149.45 667.70,94.60 659.48,94.60" style="stroke-width: 0.75;" />
<polygon points="669.76,125.07 677.98,125.07 677.98,82.41 669.76,82.41" style="stroke-width: 0.75;stroke: none;fill: #D3D3D3;" />
<line x1="669.76" y1="100.69" x2="677.98" y2="100.69" style="stroke-width: 2.25;stroke-linecap: butt;"/>
<line x1="673.87" y1="179.93" x2="673.87" y2="125.07" style="stroke-width: 0.75; stroke-dasharray: 4.00, 4.00;"/>
<line x1="673.87" y1="70.22" x2="673.87" y2="82.41" style="stroke-width: 0.75; stroke-dasharray: 4.00, 4.00;"/>
<line x1="671.81" y1="179.93" x2="675.92" y2="179.93" style="stroke-width: 0.75;"/>
<line x1="671.81" y1="70.22" x2="675.92" y2="70.22" style="stroke-width: 0.75;"/>
<polygon points="669.76,125.07 677.98,125.07 677.98,82.41 669.76,82.41" style="stroke-width: 0.75;" />
<circle cx="673.87" cy="265.26" r="1.86" style="stroke-width: 0.75;"/>
<polygon points="680.03,125.07 688.26,125.07 688.26,94.60 680.03,94.60" style="stroke-width: 0.75;stroke: none;fill: #D3D3D3;" />
<line x1="680.03" y1="106.79" x2="688.26" y2="106.79" style="stroke-width: 2.25;stroke-linecap: butt;"/>
<line x1="684.15" y1="143.36" x2="684.15" y2="125.07" style="stroke-width: 0.75; stroke-dasharray: 4.00, 4.00;"/>
<line x1="684.15" y1="70.22" x2="684.15" y2="94.60" style="stroke-width: 0.75; stroke-dasharray: 4.00, 4.00;"/>
<line x1="682.09" y1="143.36" x2="686.20" y2="143.36" style="stroke-width: 0.75;"/>
<line x1="682.09" y1="70.22" x2="686.20" y2="70.22" style="stroke-width: 0.75;"/>
<polygon points="680.03,125.07 688.26,125.07 688.26,94.60 680.03,94.60" style="stroke-width: 0.75;" />
<circle cx="684.15" cy="253.07" r="1.86" style="stroke-width: 0.75;"/>
<polygon points="690.31,106.79 698.53,106.79 698.53,82.41 690.31,82.41" style="stroke-width: 0.75;stroke: none;fill: #D3D3D3;" />
<line x1="690.31" y1="88.50" x2="698.53" y2="88.50" style="stroke-width: 2.25;stroke-linecap: butt;"/>
<line x1="694.42" y1="143.36" x2="694.42" y2="106.79" style="stroke-width: 0.75; stroke-dasharray: 4.00, 4.00;"/>
<line x1="694.42" y1="70.22" x2="694.42" y2="82.41" style="stroke-width: 0.75; stroke-dasharray: 4.00, 4.00;"/>
<line x1="692.37" y1="143.36" x2="696.48" y2="143.36" style="stroke-width: 0.75;"/>
<line x1="692.37" y1="70.22" x2="696.48" y2="70.22" style="stroke-width: 0.75;"/>
<polygon points="690.31,106.79 698.53,106.79 698.53,82.41 690.31,82.41" style="stroke-width: 0.75;" />
<polygon points="700.59,106.79 708.81,106.79 708.81,88.50 700.59,88.50" style="stroke-width: 0.75;stroke: none;fill: #D3D3D3;" />
<line x1="700.59" y1="106.79" x2="708.81" y2="106.79" style="stroke-width: 2.25;stroke-linecap: butt;"/>
<line x1="704.70" y1="131.17" x2="704.70" y2="106.79" style="stroke-width: 0.75; stroke-dasharray: 4.00, 4.00;"/>
<line x1="704.70" y1="70.22" x2="704.70" y2="88.50" style="stroke-width: 0.75; stroke-dasharray: 4.00, 4.00;"/>
<line x1="702.65" y1="131.17" x2="706.76" y2="131.17" style="stroke-width: 0.75;"/>
<line x1="702.65" y1="70.22" x2="706.76" y2="70.22" style="stroke-width: 0.75;"/>
<polygon points="700.59,106.79 708.81,106.79 708.81,88.50 700.59,88.50" style="stroke-width: 0.75;" />
<circle cx="704.70" cy="216.50" r="1.86" style="stroke-width: 0.75;"/>
<polygon points="710.87,106.79 719.09,106.79 719.09,88.50 710.87,88.50" style="stroke-width: 0.75;stroke: none;fill: #D3D3D3;" />
<line x1="710.87" y1="94.60" x2="719.09" y2="94.60" style="stroke-width: 2.25;stroke-linecap: butt;"/>
<line x1="714.98" y1="131.17" x2="714.98" y2="106.79" style="stroke-width: 0.75; stroke-dasharray: 4.00, 4.00;"/>
<line x1="714.98" y1="70.22" x2="714.98" y2="88.50" style="stroke-width: 0.75; stroke-dasharray: 4.00, 4.00;"/>
<line x1="712.92" y1="131.17" x2="717.03" y2="131.17" style="stroke-width: 0.75;"/>
<line x1="712.92" y1="70.22" x2="717.03" y2="70.22" style="stroke-width: 0.75;"/>
<polygon points="710.87,106.79 719.09,106.79 719.09,88.50 710.87,88.50" style="stroke-width: 0.75;" />
<circle cx="714.98" cy="204.31" r="1.86" style="stroke-width: 0.75;"/>
<polygon points="721.15,106.79 729.37,106.79 729.37,82.41 721.15,82.41" style="stroke-width: 0.75;stroke: none;fill: #D3D3D3;" />
<line x1="721.15" y1="94.60" x2="729.37" y2="94.60" style="stroke-width: 2.25;stroke-linecap: butt;"/>
<line x1="725.26" y1="131.17" x2="725.26" y2="106.79" style="stroke-width: 0.75; stroke-dasharray: 4.00, 4.00;"/>
<line x1="725.26" y1="82.41" x2="725.26" y2="82.41" style="stroke-width: 0.75; stroke-dasharray: 4.00, 4.00;"/>
<line x1="723.20" y1="131.17" x2="727.31" y2="131.17" style="stroke-width: 0.75;"/>
<line x1="723.20" y1="82.41" x2="727.31" y2="82.41" style="stroke-width: 0.75;"/>
<polygon points="721.15,106.79 729.37,106.79 729.37,82.41 721.15,82.41" style="stroke-width: 0.75;" />
<polygon points="731.42,118.98 739.64,118.98 739.64,88.50 731.42,88.50" style="stroke-width: 0.75;stroke: none;fill: #D3D3D3;" />
<line x1="731.42" y1="106.79" x2="739.64" y2="106.79" style="stroke-width: 2.25;stroke-linecap: butt;"/>
<line x1="735.53" y1="143.36" x2="735.53" y2="118.98" style="stroke-width: 0.75; stroke-dasharray: 4.00, 4.00;"/>
<line x1="735.53" y1="70.22" x2="735.53" y2="88.50" style="stroke-width: 0.75; stroke-dasharray: 4.00, 4.00;"/>
<line x1="733.48" y1="143.36" x2="737.59" y2="143.36" style="stroke-width: 0.75;"/>
<line x1="733.48" y1="70.22" x2="737.59" y2="70.22" style="stroke-width: 0.75;"/>
<polygon points="731.42,118.98 739.64,118.98 739.64,88.50 731.42,88.50" style="stroke-width: 0.75;" />
<circle cx="735.53" cy="167.74" r="1.86" style="stroke-width: 0.75;"/>
<polygon points="741.70,106.79 749.92,106.79 749.92,82.41 741.70,82.41" style="stroke-width: 0.75;stroke: none;fill: #D3D3D3;" />
<line x1="741.70" y1="88.50" x2="749.92" y2="88.50" style="stroke-width: 2.25;stroke-linecap: butt;"/>
<line x1="745.81" y1="143.36" x2="745.81" y2="106.79" style="stroke-width: 0.75; stroke-dasharray: 4.00, 4.00;"/>
<line x1="745.81" y1="70.22" x2="745.81" y2="82.41" style="stroke-width: 0.75; stroke-dasharray: 4.00, 4.00;"/>
<line x1="743.76" y1="143.36" x2="747.87" y2="143.36" style="stroke-width: 0.75;"/>
<line x1="743.76" y1="70.22" x2="747.87" y2="70.22" style="stroke-width: 0.75;"/>
<polygon points="741.70,106.79 749.92,106.79 749.92,82.41 741.70,82.41" style="stroke-width: 0.75;" />
<circle cx="745.81" cy="167.74" r="1.86" style="stroke-width: 0.75;"/>
<circle cx="745.81" cy="167.74" r="1.86" style="stroke-width: 0.75;"/>
<polygon points="751.98,94.60 760.20,94.60 760.20,70.22 751.98,70.22" style="stroke-width: 0.75;stroke: none;fill: #D3D3D3;" />
<line x1="751.98" y1="82.41" x2="760.20" y2="82.41" style="stroke-width: 2.25;stroke-linecap: butt;"/>
<line x1="756.09" y1="118.98" x2="756.09" y2="94.60" style="stroke-width: 0.75; stroke-dasharray: 4.00, 4.00;"/>
<line x1="756.09" y1="70.22" x2="756.09" y2="70.22" style="stroke-width: 0.75; stroke-dasharray: 4.00, 4.00;"/>
<line x1="754.03" y1="118.98" x2="758.14" y2="118.98" style="stroke-width: 0.75;"/>
<line x1="754.03" y1="70.22" x2="758.14" y2="70.22" style="stroke-width: 0.75;"/>
<polygon points="751.98,94.60 760.20,94.60 760.20,70.22 751.98,70.22" style="stroke-width: 0.75;" />
<circle cx="756.09" cy="179.93" r="1.86" style="stroke-width: 0.75;"/>
<polygon points="762.26,118.98 770.48,118.98 770.48,82.41 762.26,82.41" style="stroke-width: 0.75;stroke: none;fill: #D3D3D3;" />
<line x1="762.26" y1="94.60" x2="770.48" y2="94.60" style="stroke-width: 2.25;stroke-linecap: butt;"/>
<line x1="766.37" y1="143.36" x2="766.37" y2="118.98" style="stroke-width: 0.75; stroke-dasharray: 4.00, 4.00;"/>
<line x1="766.37" y1="70.22" x2="766.37" y2="82.41" style="stroke-width: 0.75; stroke-dasharray: 4.00, 4.00;"/>
<line x1="764.31" y1="143.36" x2="768.42" y2="143.36" style="stroke-width: 0.75;"/>
<line x1="764.31" y1="70.22" x2="768.42" y2="70.22" style="stroke-width: 0.75;"/>
<polygon points="762.26,118.98 770.48,118.98 770.48,82.41 762.26,82.41" style="stroke-width: 0.75;" />
<circle cx="766.37" cy="216.50" r="1.86" style="stroke-width: 0.75;"/>
<circle cx="766.37" cy="179.93" r="1.86" style="stroke-width: 0.75;"/>
<polygon points="772.53,106.79 780.76,106.79 780.76,82.41 772.53,82.41" style="stroke-width: 0.75;stroke: none;fill: #D3D3D3;" />
<line x1="772.53" y1="94.60" x2="780.76" y2="94.60" style="stroke-width: 2.25;stroke-linecap: butt;"/>
<line x1="776.64" y1="131.17" x2="776.64" y2="106.79" style="stroke-width: 0.75; stroke-dasharray: 4.00, 4.00;"/>
<line x1="776.64" y1="70.22" x2="776.64" y2="82.41" style="stroke-width: 0.75; stroke-dasharray: 4.00, 4.00;"/>
<line x1="774.59" y1="131.17" x2="778.70" y2="131.17" style="stroke-width: 0.75;"/>
<line x1="774.59" y1="70.22" x2="778.70" y2="70.22" style="stroke-width: 0.75;"/>
<polygon points="772.53,106.79 780.76,106.79 780.76,82.41 772.53,82.41" style="stroke-width: 0.75;" />
<circle cx="776.64" cy="167.74" r="1.86" style="stroke-width: 0.75;"/>
<polygon points="782.81,94.60 791.03,94.60 791.03,76.31 782.81,76.31" style="stroke-width: 0.75;stroke: none;fill: #D3D3D3;" />
<line x1="782.81" y1="82.41" x2="791.03" y2="82.41" style="stroke-width: 2.25;stroke-linecap: butt;"/>
<line x1="786.92" y1="118.98" x2="786.92" y2="94.60" style="stroke-width: 0.75; stroke-dasharray: 4.00, 4.00;"/>
<line x1="786.92" y1="70.22" x2="786.92" y2="76.31" style="stroke-width: 0.75; stroke-dasharray: 4.00, 4.00;"/>
<line x1="784.87" y1="118.98" x2="788.98" y2="118.98" style="stroke-width: 0.75;"/>
<line x1="784.87" y1="70.22" x2="788.98" y2="70.22" style="stroke-width: 0.75;"/>
<polygon points="782.81,94.60 791.03,94.60 791.03,76.31 782.81,76.31" style="stroke-width: 0.75;" />
<polygon points="793.09,94.60 801.31,94.60 801.31,82.41 793.09,82.41" style="stroke-width: 0.75;stroke: none;fill: #D3D3D3;" />
<line x1="793.09" y1="94.60" x2="801.31" y2="94.60" style="stroke-width: 2.25;stroke-linecap: butt;"/>
<line x1="797.20" y1="106.79" x2="797.20" y2="94.60" style="stroke-width: 0.75; stroke-dasharray: 4.00, 4.00;"/>
<line x1="797.20" y1="70.22" x2="797.20" y2="82.41" style="stroke-width: 0.75; stroke-dasharray: 4.00, 4.00;"/>
<line x1="795.14" y1="106.79" x2="799.25" y2="106.79" style="stroke-width: 0.75;"/>
<line x1="795.14" y1="70.22" x2="799.25" y2="70.22" style="stroke-width: 0.75;"/>
<polygon points="793.09,94.60 801.31,94.60 801.31,82.41 793.09,82.41" style="stroke-width: 0.75;" />
<circle cx="797.20" cy="118.98" r="1.86" style="stroke-width: 0.75;"/>
<circle cx="797.20" cy="131.17" r="1.86" style="stroke-width: 0.75;"/>
<polygon points="803.37,88.50 811.59,88.50 811.59,70.22 803.37,70.22" style="stroke-width: 0.75;stroke: none;fill: #D3D3D3;" />
<line x1="803.37" y1="76.31" x2="811.59" y2="76.31" style="stroke-width: 2.25;stroke-linecap: butt;"/>
<line x1="807.48" y1="106.79" x2="807.48" y2="88.50" style="stroke-width: 0.75; stroke-dasharray: 4.00, 4.00;"/>
<line x1="807.48" y1="70.22" x2="807.48" y2="70.22" style="stroke-width: 0.75; stroke-dasharray: 4.00, 4.00;"/>
<line x1="805.42" y1="106.79" x2="809.53" y2="106.79" style="stroke-width: 0.75;"/>
<line x1="805.42" y1="70.22" x2="809.53" y2="70.22" style="stroke-width: 0.75;"/>
<polygon points="803.37,88.50 811.59,88.50 811.59,70.22 803.37,70.22" style="stroke-width: 0.75;" />
<circle cx="807.48" cy="155.55" r="1.86" style="stroke-width: 0.75;"/>
<circle cx="807.48" cy="118.98" r="1.86" style="stroke-width: 0.75;"/>
</g><g clip-path='url(#c3)'>
<line x1="509.43" y1="311.09" x2="807.48" y2="311.09" style="stroke-width: 0.75;"/>
<line x1="509.43" y1="311.09" x2="509.43" y2="317.07" style="stroke-width: 0.75;"/>
<line x1="519.70" y1="311.09" x2="519.70" y2="317.07" style="stroke-width: 0.75;"/>
<line x1="529.98" y1="311.09" x2="529.98" y2="317.07" style="stroke-width: 0.75;"/>
<line x1="540.26" y1="311.09" x2="540.26" y2="317.07" style="stroke-width: 0.75;"/>
<line x1="550.54" y1="311.09" x2="550.54" y2="317.07" style="stroke-width: 0.75;"/>
<line x1="560.81" y1="311.09" x2="560.81" y2="317.07" style="stroke-width: 0.75;"/>
<line x1="571.09" y1="311.09" x2="571.09" y2="317.07" style="stroke-width: 0.75;"/>
<line x1="581.37" y1="311.09" x2="581.37" y2="317.07" style="stroke-width: 0.75;"/>
<line x1="591.65" y1="311.09" x2="591.65" y2="317.07" style="stroke-width: 0.75;"/>
<line x1="601.93" y1="311.09" x2="601.93" y2="317.07" style="stroke-width: 0.75;"/>
<line x1="612.20" y1="311.09" x2="612.20" y2="317.07" style="stroke-width: 0.75;"/>
<line x1="622.48" y1="311.09" x2="622.48" y2="317.07" style="stroke-width: 0.75;"/>
<line x1="632.76" y1="311.09" x2="632.76" y2="317.07" style="stroke-width: 0.75;"/>
<line x1="643.04" y1="311.09" x2="643.04" y2="317.07" style="stroke-width: 0.75;"/>
<line x1="653.31" y1="311.09" x2="653.31" y2="317.07" style="stroke-width: 0.75;"/>
<line x1="663.59" y1="311.09" x2="663.59" y2="317.07" style="stroke-width: 0.75;"/>
<line x1="673.87" y1="311.09" x2="673.87" y2="317.07" style="stroke-width: 0.75;"/>
<line x1="684.15" y1="311.09" x2="684.15" y2="317.07" style="stroke-width: 0.75;"/>
<line x1="694.42" y1="311.09" x2="694.42" y2="317.07" style="stroke-width: 0.75;"/>
<line x1="704.70" y1="311.09" x2="704.70" y2="317.07" style="stroke-width: 0.75;"/>
<line x1="714.98" y1="311.09" x2="714.98" y2="317.07" style="stroke-width: 0.75;"/>
<line x1="725.26" y1="311.09" x2="725.26" y2="317.07" style="stroke-width: 0.75;"/>
<line x1="735.53" y1="311.09" x2="735.53" y2="317.07" style="stroke-width: 0.75;"/>
<line x1="745.81" y1="311.09" x2="745.81" y2="317.07" style="stroke-width: 0.75;"/>
<line x1="756.09" y1="311.09" x2="756.09" y2="317.07" style="stroke-width: 0.75;"/>
<line x1="766.37" y1="311.09" x2="766.37" y2="317.07" style="stroke-width: 0.75;"/>
<line x1="776.64" y1="311.09" x2="776.64" y2="317.07" style="stroke-width: 0.75;"/>
<line x1="786.92" y1="311.09" x2="786.92" y2="317.07" style="stroke-width: 0.75;"/>
<line x1="797.20" y1="311.09" x2="797.20" y2="317.07" style="stroke-width: 0.75;"/>
<line x1="807.48" y1="311.09" x2="807.48" y2="317.07" style="stroke-width: 0.75;"/>
<g><text transform="translate(512.64,323.04) rotate(-90.00)" text-anchor="end" style="font-family: Arial;font-size: 8.96px;" textLength="14.95px" lengthAdjust="spacingAndGlyphs">300</text></g>
<g><text transform="translate(522.92,323.04) rotate(-90.00)" text-anchor="end" style="font-family: Arial;font-size: 8.96px;" textLength="14.95px" lengthAdjust="spacingAndGlyphs">324</text></g>
<g><text transform="translate(533.19,323.04) rotate(-90.00)" text-anchor="end" style="font-family: Arial;font-size: 8.96px;" textLength="14.95px" lengthAdjust="spacingAndGlyphs">348</text></g>
<g><text transform="translate(543.47,323.04) rotate(-90.00)" text-anchor="end" style="font-family: Arial;font-size: 8.96px;" textLength="14.95px" lengthAdjust="spacingAndGlyphs">372</text></g>
<g><text transform="translate(553.75,323.04) rotate(-90.00)" text-anchor="end" style="font-family: Arial;font-size: 8.96px;" textLength="14.95px" lengthAdjust="spacingAndGlyphs">396</text></g>
<g><text transform="translate(564.03,323.04) rotate(-90.00)" text-anchor="end" style="font-family: Arial;font-size: 8.96px;" textLength="14.95px" lengthAdjust="spacingAndGlyphs">420</text></g>
<g><text transform="translate(574.30,323.04) rotate(-90.00)" text-anchor="end" style="font-family: Arial;font-size: 8.96px;" textLength="14.95px" lengthAdjust="spacingAndGlyphs">444</text></g>
<g><text transform="translate(584.58,323.04) rotate(-90.00)" text-anchor="end" style="font-family: Arial;font-size: 8.96px;" textLength="14.95px" lengthAdjust="spacingAndGlyphs">468</text></g>
<g><text transform="translate(594.86,323.04) rotate(-90.00)" text-anchor="end" style="font-family: Arial;font-size: 8.96px;" textLength="14.95px" lengthAdjust="spacingAndGlyphs">493</text></g>
<g><text transform="translate(605.14,323.04) rotate(-90.00)" text-anchor="end" style="font-family: Arial;font-size: 8.96px;" textLength="14.95px" lengthAdjust="spacingAndGlyphs">517</text></g>
<g><text transform="translate(615.41,323.04) rotate(-90.00)" text-anchor="end" style="font-family: Arial;font-size: 8.96px;" textLength="14.95px" lengthAdjust="spacingAndGlyphs">541</text></g>
<g><text transform="translate(625.69,323.04) rotate(-90.00)" text-anchor="end" style="font-family: Arial;font-size: 8.96px;" textLength="14.95px" lengthAdjust="spacingAndGlyphs">565</text></g>
<g><text transform="translate(635.97,323.04) rotate(-90.00)" text-anchor="end" style="font-family: Arial;font-size: 8.96px;" textLength="14.95px" lengthAdjust="spacingAndGlyphs">589</text></g>
<g><text transform="translate(646.25,323.04) rotate(-90.00)" text-anchor="end" style="font-family: Arial;font-size: 8.96px;" textLength="14.95px" lengthAdjust="spacingAndGlyphs">613</text></g>
<g><text transform="translate(656.52,323.04) rotate(-90.00)" text-anchor="end" style="font-family: Arial;font-size: 8.96px;" textLength="14.95px" lengthAdjust="spacingAndGlyphs">637</text></g>
<g><text transform="translate(666.80,323.04) rotate(-90.00)" text-anchor="end" style="font-family: Arial;font-size: 8.96px;" textLength="14.95px" lengthAdjust="spacingAndGlyphs">662</text></g>
<g><text transform="translate(677.08,323.04) rotate(-90.00)" text-anchor="end" style="font-family: Arial;font-size: 8.96px;" textLength="14.95px" lengthAdjust="spacingAndGlyphs">686</text></g>
<g><text transform="translate(687.36,323.04) rotate(-90.00)" text-anchor="end" style="font-family: Arial;font-size: 8.96px;" textLength="14.95px" lengthAdjust="spacingAndGlyphs">710</text></g>
<g><text transform="translate(697.63,323.04) rotate(-90.00)" text-anchor="end" style="font-family: Arial;font-size: 8.96px;" textLength="14.95px" lengthAdjust="spacingAndGlyphs">734</text></g>
<g><text transform="translate(707.91,323.04) rotate(-90.00)" text-anchor="end" style="font-family: Arial;font-size: 8.96px;" textLength="14.95px" lengthAdjust="spacingAndGlyphs">758</text></g>
<g><text transform="translate(718.19,323.04) rotate(-90.00)" text-anchor="end" style="font-family: Arial;font-size: 8.96px;" textLength="14.95px" lengthAdjust="spacingAndGlyphs">782</text></g>
<g><text transform="translate(728.47,323.04) rotate(-90.00)" text-anchor="end" style="font-family: Arial;font-size: 8.96px;" textLength="14.95px" lengthAdjust="spacingAndGlyphs">806</text></g>
<g><text transform="translate(738.75,323.04) rotate(-90.00)" text-anchor="end" style="font-family: Arial;font-size: 8.96px;" textLength="14.95px" lengthAdjust="spacingAndGlyphs">831</text></g>
<g><text transform="translate(749.02,323.04) rotate(-90.00)" text-anchor="end" style="font-family: Arial;font-size: 8.96px;" textLength="14.95px" lengthAdjust="spacingAndGlyphs">855</text></g>
<g><text transform="translate(759.30,323.04) rotate(-90.00)" text-anchor="end" style="font-family: Arial;font-size: 8.96px;" textLength="14.95px" lengthAdjust="spacingAndGlyphs">879</text></g>
<g><text transform="translate(769.58,323.04) rotate(-90.00)" text-anchor="end" style="font-family: Arial;font-size: 8.96px;" textLength="14.95px" lengthAdjust="spacingAndGlyphs">903</text></g>
<g><text transform="translate(779.86,323.04) rotate(-90.00)" text-anchor="end" style="font-family: Arial;font-size: 8.96px;" textLength="14.95px" lengthAdjust="spacingAndGlyphs">927</text></g>
<g><text transform="translate(790.13,323.04) rotate(-90.00)" text-anchor="end" style="font-family: Arial;font-size: 8.96px;" textLength="14.95px" lengthAdjust="spacingAndGlyphs">951</text></g>
<g><text transform="translate(800.41,323.04) rotate(-90.00)" text-anchor="end" style="font-family: Arial;font-size: 8.96px;" textLength="14.95px" lengthAdjust="spacingAndGlyphs">975</text></g>
<g><text transform="translate(810.69,323.04) rotate(-90.00)" text-anchor="end" style="font-family: Arial;font-size: 8.96px;" textLength="19.93px" lengthAdjust="spacingAndGlyphs">1000</text></g>
<line x1="491.96" y1="301.83" x2="491.96" y2="70.22" style="stroke-width: 0.75;"/>
<line x1="491.96" y1="301.83" x2="485.98" y2="301.83" style="stroke-width: 0.75;"/>
<line x1="491.96" y1="255.51" x2="485.98" y2="255.51" style="stroke-width: 0.75;"/>
<line x1="491.96" y1="209.18" x2="485.98" y2="209.18" style="stroke-width: 0.75;"/>
<line x1="491.96" y1="162.86" x2="485.98" y2="162.86" style="stroke-width: 0.75;"/>
<line x1="491.96" y1="116.54" x2="485.98" y2="116.54" style="stroke-width: 0.75;"/>
<line x1="491.96" y1="70.22" x2="485.98" y2="70.22" style="stroke-width: 0.75;"/>
<g><text x="480.00" y="305.04" text-anchor="end" style="font-family: Arial;font-size: 8.96px;" textLength="12.45px" lengthAdjust="spacingAndGlyphs">0.0</text></g>
<g><text x="480.00" y="258.72" text-anchor="end" style="font-family: Arial;font-size: 8.96px;" textLength="12.45px" lengthAdjust="spacingAndGlyphs">0.2</text></g>
<g><text x="480.00" y="212.40" text-anchor="end" style="font-family: Arial;font-size: 8.96px;" textLength="12.45px" lengthAdjust="spacingAndGlyphs">0.4</text></g>
<g><text x="480.00" y="166.07" text-anchor="end" style="font-family: Arial;font-size: 8.96px;" textLength="12.45px" lengthAdjust="spacingAndGlyphs">0.6</text></g>
<g><text x="480.00" y="119.75" text-anchor="end" style="font-family: Arial;font-size: 8.96px;" textLength="12.45px" lengthAdjust="spacingAndGlyphs">0.8</text></g>
<g><text x="480.00" y="73.43" text-anchor="end" style="font-family: Arial;font-size: 8.96px;" textLength="12.45px" lengthAdjust="spacingAndGlyphs">1.0</text></g>
</g><g clip-path='url(#c5)'>
<polygon points="491.96,311.09 824.95,311.09 824.95,60.96 491.96,60.96" style="stroke-width: 0.75;" />
</g><g clip-path='url(#c6)'>
<g><text x="658.45" y="34.06" text-anchor="middle" style="font-family: Arial;font-size: 9.96px;font-weight: bold;" textLength="159.29px" lengthAdjust="spacingAndGlyphs">Monte Carlo Replicated Measures</text></g>
<g><text transform="translate(453.71,186.02) rotate(-90.00)" text-anchor="middle" style="font-family: Arial;font-size: 9.96px;" textLength="113.34px" lengthAdjust="spacingAndGlyphs">Values for measure &apos;SEN&apos;</text></g>
<g><text x="658.45" y="368.46" text-anchor="middle" style="font-family: Arial;font-size: 9.96px;" textLength="107.32px" lengthAdjust="spacingAndGlyphs">Replicated sample sizes</text></g>
</g><g clip-path='url(#c7)'>
<line x1="491.96" y1="162.86" x2="824.95" y2="162.86" style="stroke-width: 0.75;stroke: #2C2C2C; stroke-dasharray: 4.00, 4.00;"/>
</g><g clip-path='url(#c8)'>
<circle cx="89.25" cy="685.83" r="2.24" style="stroke-width: 0.75;stroke: #4169E1;fill: #4169E1;"/>
<circle cx="113.51" cy="685.83" r="2.24" style="stroke-width: 0.75;stroke: #4169E1;fill: #4169E1;"/>
<circle cx="137.76" cy="685.83" r="2.24" style="stroke-width: 0.75;stroke: #4169E1;fill: #4169E1;"/>
<circle cx="162.01" cy="570.02" r="2.24" style="stroke-width: 0.75;stroke: #4169E1;fill: #4169E1;"/>
<circle cx="186.27" cy="627.93" r="2.24" style="stroke-width: 0.75;stroke: #4169E1;fill: #4169E1;"/>
<circle cx="210.52" cy="604.77" r="2.24" style="stroke-width: 0.75;stroke: #4169E1;fill: #4169E1;"/>
<circle cx="234.77" cy="581.60" r="2.24" style="stroke-width: 0.75;stroke: #4169E1;fill: #4169E1;"/>
<circle cx="259.03" cy="558.44" r="2.24" style="stroke-width: 0.75;stroke: #4169E1;fill: #4169E1;"/>
<circle cx="284.29" cy="500.54" r="2.24" style="stroke-width: 0.75;stroke: #4169E1;fill: #4169E1;"/>
<circle cx="308.55" cy="581.60" r="2.24" style="stroke-width: 0.75;stroke: #4169E1;fill: #4169E1;"/>
<circle cx="332.80" cy="512.12" r="2.24" style="stroke-width: 0.75;stroke: #4169E1;fill: #4169E1;"/>
<circle cx="357.05" cy="488.96" r="2.24" style="stroke-width: 0.75;stroke: #4169E1;fill: #4169E1;"/>
<circle cx="381.31" cy="512.12" r="2.24" style="stroke-width: 0.75;stroke: #4169E1;fill: #4169E1;"/>
<circle cx="405.56" cy="477.38" r="2.24" style="stroke-width: 0.75;stroke: #4169E1;fill: #4169E1;"/>
<circle cx="429.81" cy="465.80" r="2.24" style="stroke-width: 0.75;stroke: #4169E1;fill: #4169E1;"/>
<circle cx="455.08" cy="488.96" r="2.24" style="stroke-width: 0.75;stroke: #4169E1;fill: #4169E1;"/>
<circle cx="479.33" cy="477.38" r="2.24" style="stroke-width: 0.75;stroke: #4169E1;fill: #4169E1;"/>
<circle cx="503.59" cy="465.80" r="2.24" style="stroke-width: 0.75;stroke: #4169E1;fill: #4169E1;"/>
<circle cx="527.84" cy="454.22" r="2.24" style="stroke-width: 0.75;stroke: #4169E1;fill: #4169E1;"/>
<circle cx="552.09" cy="465.80" r="2.24" style="stroke-width: 0.75;stroke: #4169E1;fill: #4169E1;"/>
<circle cx="576.35" cy="465.80" r="2.24" style="stroke-width: 0.75;stroke: #4169E1;fill: #4169E1;"/>
<circle cx="600.60" cy="454.22" r="2.24" style="stroke-width: 0.75;stroke: #4169E1;fill: #4169E1;"/>
<circle cx="625.87" cy="465.80" r="2.24" style="stroke-width: 0.75;stroke: #4169E1;fill: #4169E1;"/>
<circle cx="650.12" cy="477.38" r="2.24" style="stroke-width: 0.75;stroke: #4169E1;fill: #4169E1;"/>
<circle cx="674.37" cy="465.80" r="2.24" style="stroke-width: 0.75;stroke: #4169E1;fill: #4169E1;"/>
<circle cx="698.63" cy="477.38" r="2.24" style="stroke-width: 0.75;stroke: #4169E1;fill: #4169E1;"/>
<circle cx="722.88" cy="465.80" r="2.24" style="stroke-width: 0.75;stroke: #4169E1;fill: #4169E1;"/>
<circle cx="747.13" cy="454.22" r="2.24" style="stroke-width: 0.75;stroke: #4169E1;fill: #4169E1;"/>
<circle cx="771.39" cy="454.22" r="2.24" style="stroke-width: 0.75;stroke: #4169E1;fill: #4169E1;"/>
<circle cx="796.65" cy="454.22" r="2.24" style="stroke-width: 0.75;stroke: #4169E1;fill: #4169E1;"/>
</g><g clip-path='url(#c9)'>
<polygon points="60.96,695.09 824.95,695.09 824.95,444.96 60.96,444.96" style="stroke-width: 0.75;" />
</g><g clip-path='url(#c10)'>
<g><text x="442.95" y="418.06" text-anchor="middle" style="font-family: Arial;font-size: 9.96px;font-weight: bold;" textLength="96.21px" lengthAdjust="spacingAndGlyphs">Computed Statistics</text></g>
<g><text transform="translate(22.71,570.02) rotate(-90.00)" text-anchor="middle" style="font-family: Arial;font-size: 9.96px;" textLength="124.92px" lengthAdjust="spacingAndGlyphs">Values for statistic &apos;POWER&apos;</text></g>
<g><text x="442.95" y="752.46" text-anchor="middle" style="font-family: Arial;font-size: 9.96px;" textLength="59.19px" lengthAdjust="spacingAndGlyphs">Sample sizes</text></g>
</g><g clip-path='url(#c11)'>
<line x1="89.25" y1="695.09" x2="796.65" y2="695.09" style="stroke-width: 0.75;"/>
<line x1="89.25" y1="695.09" x2="89.25" y2="697.59" style="stroke-width: 0.75;"/>
<line x1="113.51" y1="695.09" x2="113.51" y2="697.59" style="stroke-width: 0.75;"/>
<line x1="137.76" y1="695.09" x2="137.76" y2="697.59" style="stroke-width: 0.75;"/>
<line x1="162.01" y1="695.09" x2="162.01" y2="697.59" style="stroke-width: 0.75;"/>
<line x1="186.27" y1="695.09" x2="186.27" y2="697.59" style="stroke-width: 0.75;"/>
<line x1="210.52" y1="695.09" x2="210.52" y2="697.59" style="stroke-width: 0.75;"/>
<line x1="234.77" y1="695.09" x2="234.77" y2="697.59" style="stroke-width: 0.75;"/>
<line x1="259.03" y1="695.09" x2="259.03" y2="697.59" style="stroke-width: 0.75;"/>
<line x1="284.29" y1="695.09" x2="284.29" y2="697.59" style="stroke-width: 0.75;"/>
<line x1="308.55" y1="695.09" x2="308.55" y2="697.59" style="stroke-width: 0.75;"/>
<line x1="332.80" y1="695.09" x2="332.80" y2="697.59" style="stroke-width: 0.75;"/>
<line x1="357.05" y1="695.09" x2="357.05" y2="697.59" style="stroke-width: 0.75;"/>
<line x1="381.31" y1="695.09" x2="381.31" y2="697.59" style="stroke-width: 0.75;"/>
<line x1="405.56" y1="695.09" x2="405.56" y2="697.59" style="stroke-width: 0.75;"/>
<line x1="429.81" y1="695.09" x2="429.81" y2="697.59" style="stroke-width: 0.75;"/>
<line x1="455.08" y1="695.09" x2="455.08" y2="697.59" style="stroke-width: 0.75;"/>
<line x1="479.33" y1="695.09" x2="479.33" y2="697.59" style="stroke-width: 0.75;"/>
<line x1="503.59" y1="695.09" x2="503.59" y2="697.59" style="stroke-width: 0.75;"/>
<line x1="527.84" y1="695.09" x2="527.84" y2="697.59" style="stroke-width: 0.75;"/>
<line x1="552.09" y1="695.09" x2="552.09" y2="697.59" style="stroke-width: 0.75;"/>
<line x1="576.35" y1="695.09" x2="576.35" y2="697.59" style="stroke-width: 0.75;"/>
<line x1="600.60" y1="695.09" x2="600.60" y2="697.59" style="stroke-width: 0.75;"/>
<line x1="625.87" y1="695.09" x2="625.87" y2="697.59" style="stroke-width: 0.75;"/>
<line x1="650.12" y1="695.09" x2="650.12" y2="697.59" style="stroke-width: 0.75;"/>
<line x1="674.37" y1="695.09" x2="674.37" y2="697.59" style="stroke-width: 0.75;"/>
<line x1="698.63" y1="695.09" x2="698.63" y2="697.59" style="stroke-width: 0.75;"/>
<line x1="722.88" y1="695.09" x2="722.88" y2="697.59" style="stroke-width: 0.75;"/>
<line x1="747.13" y1="695.09" x2="747.13" y2="697.59" style="stroke-width: 0.75;"/>
<line x1="771.39" y1="695.09" x2="771.39" y2="697.59" style="stroke-width: 0.75;"/>
<line x1="796.65" y1="695.09" x2="796.65" y2="697.59" style="stroke-width: 0.75;"/>
<g><text transform="translate(92.46,707.04) rotate(-90.00)" text-anchor="end" style="font-family: Arial;font-size: 8.96px;" textLength="14.95px" lengthAdjust="spacingAndGlyphs">300</text></g>
<g><text transform="translate(116.72,707.04) rotate(-90.00)" text-anchor="end" style="font-family: Arial;font-size: 8.96px;" textLength="14.95px" lengthAdjust="spacingAndGlyphs">324</text></g>
<g><text transform="translate(140.97,707.04) rotate(-90.00)" text-anchor="end" style="font-family: Arial;font-size: 8.96px;" textLength="14.95px" lengthAdjust="spacingAndGlyphs">348</text></g>
<g><text transform="translate(165.22,707.04) rotate(-90.00)" text-anchor="end" style="font-family: Arial;font-size: 8.96px;" textLength="14.95px" lengthAdjust="spacingAndGlyphs">372</text></g>
<g><text transform="translate(189.48,707.04) rotate(-90.00)" text-anchor="end" style="font-family: Arial;font-size: 8.96px;" textLength="14.95px" lengthAdjust="spacingAndGlyphs">396</text></g>
<g><text transform="translate(213.73,707.04) rotate(-90.00)" text-anchor="end" style="font-family: Arial;font-size: 8.96px;" textLength="14.95px" lengthAdjust="spacingAndGlyphs">420</text></g>
<g><text transform="translate(237.99,707.04) rotate(-90.00)" text-anchor="end" style="font-family: Arial;font-size: 8.96px;" textLength="14.95px" lengthAdjust="spacingAndGlyphs">444</text></g>
<g><text transform="translate(262.24,707.04) rotate(-90.00)" text-anchor="end" style="font-family: Arial;font-size: 8.96px;" textLength="14.95px" lengthAdjust="spacingAndGlyphs">468</text></g>
<g><text transform="translate(287.50,707.04) rotate(-90.00)" text-anchor="end" style="font-family: Arial;font-size: 8.96px;" textLength="14.95px" lengthAdjust="spacingAndGlyphs">493</text></g>
<g><text transform="translate(311.76,707.04) rotate(-90.00)" text-anchor="end" style="font-family: Arial;font-size: 8.96px;" textLength="14.95px" lengthAdjust="spacingAndGlyphs">517</text></g>
<g><text transform="translate(336.01,707.04) rotate(-90.00)" text-anchor="end" style="font-family: Arial;font-size: 8.96px;" textLength="14.95px" lengthAdjust="spacingAndGlyphs">541</text></g>
<g><text transform="translate(360.26,707.04) rotate(-90.00)" text-anchor="end" style="font-family: Arial;font-size: 8.96px;" textLength="14.95px" lengthAdjust="spacingAndGlyphs">565</text></g>
<g><text transform="translate(384.52,707.04) rotate(-90.00)" text-anchor="end" style="font-family: Arial;font-size: 8.96px;" textLength="14.95px" lengthAdjust="spacingAndGlyphs">589</text></g>
<g><text transform="translate(408.77,707.04) rotate(-90.00)" text-anchor="end" style="font-family: Arial;font-size: 8.96px;" textLength="14.95px" lengthAdjust="spacingAndGlyphs">613</text></g>
<g><text transform="translate(433.03,707.04) rotate(-90.00)" text-anchor="end" style="font-family: Arial;font-size: 8.96px;" textLength="14.95px" lengthAdjust="spacingAndGlyphs">637</text></g>
<g><text transform="translate(458.29,707.04) rotate(-90.00)" text-anchor="end" style="font-family: Arial;font-size: 8.96px;" textLength="14.95px" lengthAdjust="spacingAndGlyphs">662</text></g>
<g><text transform="translate(482.54,707.04) rotate(-90.00)" text-anchor="end" style="font-family: Arial;font-size: 8.96px;" textLength="14.95px" lengthAdjust="spacingAndGlyphs">686</text></g>
<g><text transform="translate(506.80,707.04) rotate(-90.00)" text-anchor="end" style="font-family: Arial;font-size: 8.96px;" textLength="14.95px" lengthAdjust="spacingAndGlyphs">710</text></g>
<g><text transform="translate(531.05,707.04) rotate(-90.00)" text-anchor="end" style="font-family: Arial;font-size: 8.96px;" textLength="14.95px" lengthAdjust="spacingAndGlyphs">734</text></g>
<g><text transform="translate(555.31,707.04) rotate(-90.00)" text-anchor="end" style="font-family: Arial;font-size: 8.96px;" textLength="14.95px" lengthAdjust="spacingAndGlyphs">758</text></g>
<g><text transform="translate(579.56,707.04) rotate(-90.00)" text-anchor="end" style="font-family: Arial;font-size: 8.96px;" textLength="14.95px" lengthAdjust="spacingAndGlyphs">782</text></g>
<g><text transform="translate(603.81,707.04) rotate(-90.00)" text-anchor="end" style="font-family: Arial;font-size: 8.96px;" textLength="14.95px" lengthAdjust="spacingAndGlyphs">806</text></g>
<g><text transform="translate(629.08,707.04) rotate(-90.00)" text-anchor="end" style="font-family: Arial;font-size: 8.96px;" textLength="14.95px" lengthAdjust="spacingAndGlyphs">831</text></g>
<g><text transform="translate(653.33,707.04) rotate(-90.00)" text-anchor="end" style="font-family: Arial;font-size: 8.96px;" textLength="14.95px" lengthAdjust="spacingAndGlyphs">855</text></g>
<g><text transform="translate(677.58,707.04) rotate(-90.00)" text-anchor="end" style="font-family: Arial;font-size: 8.96px;" textLength="14.95px" lengthAdjust="spacingAndGlyphs">879</text></g>
<g><text transform="translate(701.84,707.04) rotate(-90.00)" text-anchor="end" style="font-family: Arial;font-size: 8.96px;" textLength="14.95px" lengthAdjust="spacingAndGlyphs">903</text></g>
<g><text transform="translate(726.09,707.04) rotate(-90.00)" text-anchor="end" style="font-family: Arial;font-size: 8.96px;" textLength="14.95px" lengthAdjust="spacingAndGlyphs">927</text></g>
<g><text transform="translate(750.35,707.04) rotate(-90.00)" text-anchor="end" style="font-family: Arial;font-size: 8.96px;" textLength="14.95px" lengthAdjust="spacingAndGlyphs">951</text></g>
<g><text transform="translate(774.60,707.04) rotate(-90.00)" text-anchor="end" style="font-family: Arial;font-size: 8.96px;" textLength="14.95px" lengthAdjust="spacingAndGlyphs">975</text></g>
<g><text transform="translate(799.86,707.04) rotate(-90.00)" text-anchor="end" style="font-family: Arial;font-size: 8.96px;" textLength="19.93px" lengthAdjust="spacingAndGlyphs">1000</text></g>
<line x1="60.96" y1="685.83" x2="60.96" y2="454.22" style="stroke-width: 0.75;"/>
<line x1="60.96" y1="685.83" x2="54.98" y2="685.83" style="stroke-width: 0.75;"/>
<line x1="60.96" y1="639.51" x2="54.98" y2="639.51" style="stroke-width: 0.75;"/>
<line x1="60.96" y1="593.18" x2="54.98" y2="593.18" style="stroke-width: 0.75;"/>
<line x1="60.96" y1="546.86" x2="54.98" y2="546.86" style="stroke-width: 0.75;"/>
<line x1="60.96" y1="500.54" x2="54.98" y2="500.54" style="stroke-width: 0.75;"/>
<line x1="60.96" y1="454.22" x2="54.98" y2="454.22" style="stroke-width: 0.75;"/>
<g><text x="49.00" y="689.04" text-anchor="end" style="font-family: Arial;font-size: 8.96px;" textLength="12.45px" lengthAdjust="spacingAndGlyphs">0.0</text></g>
<g><text x="49.00" y="642.72" text-anchor="end" style="font-family: Arial;font-size: 8.96px;" textLength="12.45px" lengthAdjust="spacingAndGlyphs">0.2</text></g>
<g><text x="49.00" y="596.40" text-anchor="end" style="font-family: Arial;font-size: 8.96px;" textLength="12.45px" lengthAdjust="spacingAndGlyphs">0.4</text></g>
<g><text x="49.00" y="550.07" text-anchor="end" style="font-family: Arial;font-size: 8.96px;" textLength="12.45px" lengthAdjust="spacingAndGlyphs">0.6</text></g>
<g><text x="49.00" y="503.75" text-anchor="end" style="font-family: Arial;font-size: 8.96px;" textLength="12.45px" lengthAdjust="spacingAndGlyphs">0.8</text></g>
<g><text x="49.00" y="457.43" text-anchor="end" style="font-family: Arial;font-size: 8.96px;" textLength="12.45px" lengthAdjust="spacingAndGlyphs">1.0</text></g>
</g><g clip-path='url(#c12)'>
<line x1="60.96" y1="500.54" x2="824.95" y2="500.54" style="stroke-width: 0.75;stroke: #2C2C2C; stroke-dasharray: 4.00, 4.00;"/>
</g>
</svg>